M48
; DRILL file {KiCad 9.0.4} date 2025-11-12T13:24:01-0500
; FORMAT={-:-/ absolute / metric / decimal}
; #@! TF.CreationDate,2025-11-12T13:24:01-05:00
; #@! TF.GenerationSoftware,Kicad,Pcbnew,9.0.4
; #@! TF.FileFunction,Plated,1,4,PTH
FMAT,2
METRIC
; #@! TA.AperFunction,Plated,PTH,ViaDrill
T1C0.300
; #@! TA.AperFunction,Plated,PTH,ComponentDrill
T2C0.600
; #@! TA.AperFunction,Plated,PTH,ComponentDrill
T3C0.750
; #@! TA.AperFunction,Plated,PTH,ComponentDrill
T4C0.991
; #@! TA.AperFunction,Plated,PTH,ComponentDrill
T5C1.020
%
G90
G05
T1
X161.0Y-74.8
X161.4Y-73.2
X161.8Y-93.2
X162.4Y-97.8
X162.8Y-104.4
X163.4Y-124.8
X163.6Y-97.6
X164.0Y-83.2
X164.0Y-86.8
X164.4Y-73.6
X164.4Y-77.6
X164.4Y-99.0
X164.6Y-88.2
X164.6Y-114.4
X165.0Y-99.6
X165.765Y-95.386
X165.776Y-94.576
X165.8Y-74.476
X165.8Y-77.2
X166.0Y-83.2
X166.0Y-86.8
X166.0Y-99.449
X166.4Y-73.4
X166.6Y-107.2
X166.6Y-123.4
X167.2Y-108.4
X167.35Y-77.25
X167.6Y-75.6
X167.6Y-76.4
X167.641Y-91.547
X168.0Y-114.6
X168.4Y-89.6
X168.4Y-91.8
X168.8Y-95.6
X169.2Y-109.648
X170.0Y-84.2
X170.2Y-116.0
X170.2Y-124.8
X170.6Y-96.0
X171.0Y-112.6
X171.4Y-94.2
X171.4Y-95.6
X171.4Y-124.2
X171.825Y-74.425
X172.0Y-80.4
X172.4Y-125.4
X172.7Y-115.3
X172.763Y-73.001
X172.8Y-68.8
X172.8Y-109.0
X172.8Y-113.6
X173.0Y-71.6
X173.8Y-65.6
X174.2Y-68.8
X174.2Y-82.4
X174.2Y-86.0
X174.2Y-91.6
X174.2Y-97.4
X174.4Y-113.8
X174.65Y-76.0
X174.8Y-70.6
X175.0Y-82.6
X175.0Y-100.0
X175.4Y-79.4
X175.6Y-91.8
X175.6Y-94.4
X175.6Y-96.2
X175.6Y-98.6
X175.6Y-110.2
X175.8Y-82.8
X175.8Y-112.2
X175.95Y-76.224
X176.2Y-67.4
X176.4Y-92.2
X176.6Y-75.2
X176.6Y-86.8
X176.8Y-94.6
X177.0Y-106.4
X177.2Y-87.6
X177.2Y-92.8
X177.6Y-91.0
X177.6Y-117.4
X177.8Y-80.2
X177.8Y-82.6
X177.8Y-84.0
X178.0Y-102.4
X178.4Y-92.4
X178.8Y-75.4
X178.8Y-77.0
X179.0Y-91.0
X180.0Y-95.8
X180.0Y-102.0
X180.0Y-120.2
X180.2Y-65.4
X180.4Y-94.0
X180.575Y-90.975
X180.8Y-120.4
X181.2Y-69.6
X181.2Y-75.4
X181.8Y-68.8
X182.0Y-110.2
X182.175Y-64.575
X182.224Y-74.824
X182.775Y-93.425
X182.8Y-88.6
X183.0Y-82.2
X183.0Y-94.8
X183.4Y-116.6
X183.8Y-97.2
X184.553Y-99.953
X185.8Y-115.0
X186.2Y-118.4
X186.362Y-64.562
X189.2Y-125.6
X189.8Y-112.4
X192.2Y-112.6
X192.2Y-117.0
X192.6Y-105.8
X193.2Y-71.0
X193.4Y-115.6
X193.6Y-114.0
X197.0Y-70.4
X197.2Y-103.6
X197.4Y-112.4
T3
X193.2Y-125.65
X195.2Y-125.65
T4
X177.33Y-73.14
X178.6Y-70.6
X179.87Y-73.14
T5
X162.8Y-77.0
X162.8Y-80.4
X174.8Y-62.4
X177.4Y-65.8
X178.4Y-62.4
T2
X176.43Y-121.688G85X176.43Y-122.688
G05
X176.43Y-126.797G85X176.43Y-128.297
G05
X185.07Y-121.688G85X185.07Y-122.688
G05
X185.07Y-126.797G85X185.07Y-128.297
G05
M30
