%TF.GenerationSoftware,KiCad,Pcbnew,9.0.4*%
%TF.CreationDate,2025-11-12T13:23:21-05:00*%
%TF.ProjectId,um_led,756d5f6c-6564-42e6-9b69-6361645f7063,rev?*%
%TF.SameCoordinates,Original*%
%TF.FileFunction,Copper,L4,Bot*%
%TF.FilePolarity,Positive*%
%FSLAX46Y46*%
G04 Gerber Fmt 4.6, Leading zero omitted, Abs format (unit mm)*
G04 Created by KiCad (PCBNEW 9.0.4) date 2025-11-12 13:23:21*
%MOMM*%
%LPD*%
G01*
G04 APERTURE LIST*
G04 Aperture macros list*
%AMRoundRect*
0 Rectangle with rounded corners*
0 $1 Rounding radius*
0 $2 $3 $4 $5 $6 $7 $8 $9 X,Y pos of 4 corners*
0 Add a 4 corners polygon primitive as box body*
4,1,4,$2,$3,$4,$5,$6,$7,$8,$9,$2,$3,0*
0 Add four circle primitives for the rounded corners*
1,1,$1+$1,$2,$3*
1,1,$1+$1,$4,$5*
1,1,$1+$1,$6,$7*
1,1,$1+$1,$8,$9*
0 Add four rect primitives between the rounded corners*
20,1,$1+$1,$2,$3,$4,$5,0*
20,1,$1+$1,$4,$5,$6,$7,0*
20,1,$1+$1,$6,$7,$8,$9,0*
20,1,$1+$1,$8,$9,$2,$3,0*%
%AMFreePoly0*
4,1,237,0.029172,1.053997,0.029356,1.053987,0.057356,1.051987,0.057683,1.051953,0.086683,1.047953,0.086879,1.047922,0.114879,1.042922,0.115213,1.042851,0.143213,1.035851,0.143374,1.035808,0.171374,1.027808,0.171737,1.027689,0.198737,1.017689,0.198886,1.017630,0.225886,1.006630,0.226095,1.006540,0.252095,0.994540,0.252443,0.994363,0.277443,0.980363,0.277572,0.980287,
0.302572,0.965287,0.302855,0.965105,0.325855,0.949105,0.326082,0.948938,0.349082,0.930938,0.371166,0.912870,0.371448,0.912621,0.392448,0.892621,0.392621,0.892448,0.412621,0.871448,0.412870,0.871166,0.430938,0.849082,0.448938,0.826082,0.449105,0.825855,0.465105,0.802855,0.465287,0.802572,0.480287,0.777572,0.480363,0.777443,0.494363,0.752443,0.494540,0.752095,
0.506540,0.726095,0.506630,0.725886,0.517630,0.698886,0.517689,0.698737,0.527689,0.671737,0.527808,0.671374,0.535808,0.643374,0.535851,0.643213,0.542851,0.615213,0.542922,0.614879,0.547922,0.586879,0.547953,0.586683,0.551953,0.557683,0.551987,0.557356,0.553987,0.529356,0.553997,0.529172,0.554997,0.500172,0.555000,0.500000,0.555000,-0.500000,0.554997,-0.500172,
0.553997,-0.529172,0.553987,-0.529356,0.551987,-0.557356,0.551953,-0.557683,0.547953,-0.586683,0.547922,-0.586879,0.542922,-0.614879,0.542851,-0.615213,0.535851,-0.643213,0.535808,-0.643374,0.527808,-0.671374,0.527689,-0.671737,0.517689,-0.698737,0.517630,-0.698886,0.506630,-0.725886,0.506540,-0.726095,0.494540,-0.752095,0.494363,-0.752443,0.480363,-0.777443,0.480287,-0.777572,
0.465287,-0.802572,0.465105,-0.802855,0.449105,-0.825855,0.448938,-0.826082,0.430938,-0.849082,0.412870,-0.871166,0.412621,-0.871448,0.392621,-0.892448,0.392448,-0.892621,0.371448,-0.912621,0.371166,-0.912870,0.349082,-0.930938,0.326082,-0.948938,0.325855,-0.949105,0.302855,-0.965105,0.302572,-0.965287,0.277572,-0.980287,0.277443,-0.980363,0.252443,-0.994363,0.252095,-0.994540,
0.226095,-1.006540,0.225886,-1.006630,0.198886,-1.017630,0.198737,-1.017689,0.171737,-1.027689,0.171374,-1.027808,0.143374,-1.035808,0.143213,-1.035851,0.115213,-1.042851,0.114879,-1.042922,0.086879,-1.047922,0.086683,-1.047953,0.057683,-1.051953,0.057356,-1.051987,0.029356,-1.053987,0.029172,-1.053997,0.000172,-1.054997,-0.000172,-1.054997,-0.029172,-1.053997,-0.029356,-1.053987,
-0.057356,-1.051987,-0.057683,-1.051953,-0.086683,-1.047953,-0.086879,-1.047922,-0.114879,-1.042922,-0.115213,-1.042851,-0.143213,-1.035851,-0.143374,-1.035808,-0.171374,-1.027808,-0.171737,-1.027689,-0.198737,-1.017689,-0.198886,-1.017630,-0.225886,-1.006630,-0.226095,-1.006540,-0.252095,-0.994540,-0.252443,-0.994363,-0.277443,-0.980363,-0.277572,-0.980287,-0.302572,-0.965287,-0.302855,-0.965105,
-0.325855,-0.949105,-0.326082,-0.948938,-0.349082,-0.930938,-0.371166,-0.912870,-0.371448,-0.912621,-0.392448,-0.892621,-0.392621,-0.892448,-0.412621,-0.871448,-0.412870,-0.871166,-0.430938,-0.849082,-0.448938,-0.826082,-0.449105,-0.825855,-0.465105,-0.802855,-0.465287,-0.802572,-0.480287,-0.777572,-0.480363,-0.777443,-0.494363,-0.752443,-0.494540,-0.752095,-0.506540,-0.726095,-0.506630,-0.725886,
-0.517630,-0.698886,-0.517689,-0.698737,-0.527689,-0.671737,-0.527808,-0.671374,-0.535808,-0.643374,-0.535851,-0.643213,-0.542851,-0.615213,-0.542922,-0.614879,-0.547922,-0.586879,-0.547953,-0.586683,-0.551953,-0.557683,-0.551987,-0.557356,-0.553987,-0.529356,-0.553997,-0.529172,-0.554997,-0.500172,-0.555000,-0.500000,-0.555000,0.500000,-0.554997,0.500172,-0.553997,0.529172,-0.553987,0.529356,
-0.551987,0.557356,-0.551953,0.557683,-0.547953,0.586683,-0.547922,0.586879,-0.542922,0.614879,-0.542851,0.615213,-0.535851,0.643213,-0.535808,0.643374,-0.527808,0.671374,-0.527689,0.671737,-0.517689,0.698737,-0.517630,0.698886,-0.506630,0.725886,-0.506540,0.726095,-0.494540,0.752095,-0.494363,0.752443,-0.480363,0.777443,-0.480287,0.777572,-0.465287,0.802572,-0.465105,0.802855,
-0.449105,0.825855,-0.448938,0.826082,-0.430938,0.849082,-0.412870,0.871166,-0.412621,0.871448,-0.392621,0.892448,-0.392448,0.892621,-0.371448,0.912621,-0.371166,0.912870,-0.349082,0.930938,-0.326082,0.948938,-0.325855,0.949105,-0.302855,0.965105,-0.302572,0.965287,-0.277572,0.980287,-0.277443,0.980363,-0.252443,0.994363,-0.252095,0.994540,-0.226095,1.006540,-0.225886,1.006630,
-0.198886,1.017630,-0.198737,1.017689,-0.171737,1.027689,-0.171374,1.027808,-0.143374,1.035808,-0.143213,1.035851,-0.115213,1.042851,-0.114879,1.042922,-0.086879,1.047922,-0.086683,1.047953,-0.057683,1.051953,-0.057356,1.051987,-0.029356,1.053987,-0.029172,1.053997,-0.000172,1.054997,0.000172,1.054997,0.029172,1.053997,0.029172,1.053997,$1*%
G04 Aperture macros list end*
%TA.AperFunction,ComponentPad*%
%ADD10O,1.100000X2.600000*%
%TD*%
%TA.AperFunction,ComponentPad*%
%ADD11FreePoly0,0.000000*%
%TD*%
%TA.AperFunction,ComponentPad*%
%ADD12R,1.498600X1.498600*%
%TD*%
%TA.AperFunction,ComponentPad*%
%ADD13C,1.498600*%
%TD*%
%TA.AperFunction,ComponentPad*%
%ADD14C,1.530000*%
%TD*%
%TA.AperFunction,ComponentPad*%
%ADD15RoundRect,0.250000X-0.350000X-0.625000X0.350000X-0.625000X0.350000X0.625000X-0.350000X0.625000X0*%
%TD*%
%TA.AperFunction,ComponentPad*%
%ADD16O,1.200000X1.750000*%
%TD*%
%TA.AperFunction,SMDPad,CuDef*%
%ADD17R,2.000000X2.000000*%
%TD*%
%TA.AperFunction,ViaPad*%
%ADD18C,0.600000*%
%TD*%
%TA.AperFunction,Conductor*%
%ADD19C,0.400000*%
%TD*%
%TA.AperFunction,Conductor*%
%ADD20C,0.200000*%
%TD*%
%TA.AperFunction,Conductor*%
%ADD21C,0.150000*%
%TD*%
%TA.AperFunction,Conductor*%
%ADD22C,0.100000*%
%TD*%
G04 APERTURE END LIST*
D10*
%TO.P,J1,S1,SHIELD*%
%TO.N,GND*%
X176430000Y-127547500D03*
%TO.P,J1,S2,SHIELD__1*%
X185070000Y-127547500D03*
D11*
%TO.P,J1,S3,SHIELD__2*%
X176430000Y-122187500D03*
%TO.P,J1,S4,SHIELD__3*%
X185070000Y-122187500D03*
%TD*%
D12*
%TO.P,U5,1,VOUT*%
%TO.N,/MCU/BLE_RST*%
X177330000Y-73140000D03*
D13*
%TO.P,U5,2,VDD*%
%TO.N,+3.3V*%
X178600000Y-70600000D03*
%TO.P,U5,3,VSS*%
%TO.N,GND*%
X179870000Y-73140000D03*
%TD*%
D14*
%TO.P,TP12,TP*%
%TO.N,/MCU/BLE_RST*%
X177400000Y-65800000D03*
%TD*%
%TO.P,TP8,TP*%
%TO.N,/MCU/UART5_TX*%
X162800000Y-80400000D03*
%TD*%
%TO.P,TP7,TP*%
%TO.N,/MCU/UART5_RX*%
X162800000Y-77000000D03*
%TD*%
%TO.P,TP6,TP*%
%TO.N,/MCU/BLE_MODE*%
X178400000Y-62400000D03*
%TD*%
%TO.P,TP9,TP*%
%TO.N,GND*%
X174800000Y-62400000D03*
%TD*%
D15*
%TO.P,BAT1,1,Pin_1*%
%TO.N,+BATT*%
X193200000Y-125650000D03*
D16*
%TO.P,BAT1,2,Pin_2*%
%TO.N,GND*%
X195200000Y-125650000D03*
%TD*%
D17*
%TO.P,TP10,1,1*%
%TO.N,Net-(U6-OUT+)*%
X163000000Y-85000000D03*
%TD*%
%TO.P,TP11,1,1*%
%TO.N,Net-(U6-OUT-)*%
X167000000Y-85000000D03*
%TD*%
D18*
%TO.N,+BATT*%
X175600000Y-98600000D03*
X180000000Y-102000000D03*
%TO.N,+3.3V*%
X186362500Y-64562500D03*
X174200000Y-68800000D03*
X183000000Y-94800000D03*
X176800000Y-94600000D03*
X192200000Y-112600000D03*
X180200000Y-65400000D03*
X178800000Y-77000000D03*
X162400000Y-97800000D03*
X162800000Y-104400000D03*
X167600000Y-76400000D03*
X167350000Y-77250000D03*
X164000000Y-86800000D03*
X170200000Y-116000000D03*
X182175000Y-64575000D03*
X171400000Y-95600000D03*
X161800000Y-93200000D03*
X166000000Y-86800000D03*
X193600000Y-114000000D03*
X180000000Y-95800000D03*
X179000000Y-91000000D03*
X197400000Y-112400000D03*
%TO.N,/MCU/NRST*%
X166600000Y-107200000D03*
X170000000Y-84200000D03*
%TO.N,Net-(D1-K)*%
X172400000Y-125400000D03*
X177600000Y-117400000D03*
%TO.N,Net-(J1-CC2)*%
X175600000Y-110200000D03*
X180800000Y-120400000D03*
%TO.N,Net-(J1-CC1)*%
X175800000Y-112200000D03*
X180000000Y-120200000D03*
%TO.N,/MCU/SWO*%
X167200000Y-108400000D03*
X174200000Y-82400000D03*
%TO.N,/MCU/SWDIO*%
X175800000Y-82800000D03*
X172700000Y-115300000D03*
%TO.N,/MCU/SWCLK*%
X171000000Y-112600000D03*
X175000000Y-82600000D03*
%TO.N,Net-(U3-BOOT0)*%
X172000000Y-80400000D03*
X183800000Y-97200000D03*
%TO.N,Net-(D4-K)*%
X161000000Y-74800000D03*
X173000000Y-71600000D03*
%TO.N,ADC1_IN2*%
X163600000Y-97600000D03*
X164600000Y-88200000D03*
%TO.N,BATT_LOW*%
X181200000Y-69600000D03*
X181200000Y-75400000D03*
%TO.N,/MCU/BLE_MODE*%
X176600000Y-75200000D03*
X173800000Y-65600000D03*
%TO.N,BUT_PRESS*%
X181800000Y-68800000D03*
X182224265Y-74824265D03*
%TO.N,/MCU/BLE_UART_RX_IND*%
X164400000Y-77600000D03*
X164400000Y-73600000D03*
%TO.N,I2C2_SCL*%
X178400000Y-92400000D03*
X177200000Y-87600000D03*
%TO.N,I2C2_SDA*%
X174200000Y-86000000D03*
X174200000Y-91600000D03*
%TO.N,GND*%
X174400000Y-113800000D03*
X168800000Y-95600000D03*
X177800000Y-80200000D03*
X164600000Y-114400000D03*
X166600000Y-123400000D03*
X192600000Y-105800000D03*
X170200000Y-124800000D03*
X170600000Y-96000000D03*
X177000000Y-106400000D03*
X174200000Y-97400000D03*
X167600000Y-75600000D03*
X174800000Y-70600000D03*
X168000000Y-114600000D03*
X176200000Y-67400000D03*
X182000000Y-110200000D03*
X166000000Y-83200000D03*
X177200000Y-92800000D03*
X165000000Y-99600000D03*
X183000000Y-82200000D03*
X193400000Y-115600000D03*
X172800000Y-113600000D03*
X183400000Y-116600000D03*
X169200000Y-109647646D03*
X186200000Y-118400000D03*
X172800000Y-68800000D03*
X189800000Y-112400000D03*
X171400000Y-124200000D03*
X197000000Y-70400000D03*
X171400000Y-94200000D03*
X177600000Y-91000000D03*
X185800000Y-115000000D03*
X161400000Y-73200000D03*
X182800000Y-88600000D03*
X197200000Y-103600000D03*
X168400000Y-89600000D03*
X171825000Y-74425000D03*
X178800000Y-75400000D03*
X164000000Y-83200000D03*
X180575000Y-90975000D03*
X180400000Y-94000000D03*
X165800000Y-77200000D03*
X178000000Y-102400000D03*
X192200000Y-117000000D03*
X172800000Y-109000000D03*
X163400000Y-124800000D03*
X182775000Y-93425000D03*
X189200000Y-125600000D03*
%TO.N,AUTO_DIM*%
X175000000Y-100000000D03*
X176600000Y-86800000D03*
%TO.N,/MCU/UART5_RX*%
X174650000Y-76000000D03*
X166400000Y-73400000D03*
%TO.N,POWER*%
X193200000Y-71000000D03*
X177800000Y-82600000D03*
%TO.N,/MCU/UART5_TX*%
X165800000Y-74475735D03*
X175400000Y-79400000D03*
%TO.N,MODE*%
X177800000Y-84000000D03*
X184553480Y-99953480D03*
%TO.N,Net-(U6-OUT+)*%
X164400000Y-99000000D03*
%TO.N,Net-(U6-OUT-)*%
X166000000Y-99448527D03*
%TO.N,LRA_TRIG*%
X167641051Y-91547017D03*
X165775735Y-94575735D03*
%TO.N,LRA_EN*%
X165765470Y-95386000D03*
X168400000Y-91800000D03*
%TO.N,/MCU/BLE_STATUS1*%
X172762867Y-73001000D03*
X175950000Y-76224265D03*
%TO.N,Net-(U3-PB1)*%
X175600000Y-96200000D03*
X176400000Y-92200000D03*
%TO.N,/MCU/ACC_INT*%
X175600000Y-91800000D03*
X175600000Y-94400000D03*
%TD*%
D19*
%TO.N,+BATT*%
X180000000Y-100600000D02*
X178000000Y-98600000D01*
X180000000Y-102000000D02*
X180000000Y-100600000D01*
X178000000Y-98600000D02*
X175600000Y-98600000D01*
D20*
%TO.N,+3.3V*%
X180000000Y-95800000D02*
X177200000Y-95800000D01*
X177200000Y-95800000D02*
X176800000Y-95400000D01*
X176800000Y-95400000D02*
X176800000Y-94600000D01*
%TO.N,/MCU/NRST*%
X169200000Y-93200000D02*
X166600000Y-95800000D01*
X170000000Y-84200000D02*
X169200000Y-85000000D01*
X169200000Y-85000000D02*
X169200000Y-93200000D01*
X166600000Y-95800000D02*
X166600000Y-107200000D01*
%TO.N,Net-(D1-K)*%
X177600000Y-117400000D02*
X172400000Y-122600000D01*
X172400000Y-122600000D02*
X172400000Y-125400000D01*
D21*
%TO.N,Net-(J1-CC2)*%
X180800000Y-115400000D02*
X175600000Y-110200000D01*
X180800000Y-115400000D02*
X180800000Y-120400000D01*
D22*
%TO.N,Net-(J1-CC1)*%
X175600000Y-112200000D02*
X175800000Y-112200000D01*
D21*
X180000000Y-115200000D02*
X180000000Y-120200000D01*
X177000000Y-112200000D02*
X175800000Y-112200000D01*
X180000000Y-115200000D02*
X177000000Y-112200000D01*
D20*
%TO.N,/MCU/SWO*%
X167200000Y-98200000D02*
X170400000Y-95000000D01*
X167200000Y-108400000D02*
X167200000Y-98200000D01*
X170400000Y-95000000D02*
X170400000Y-86200000D01*
X170400000Y-86200000D02*
X174200000Y-82400000D01*
%TO.N,/MCU/SWDIO*%
X172700000Y-115300000D02*
X173600000Y-114400000D01*
X173600000Y-114400000D02*
X173600000Y-85000000D01*
X173600000Y-85000000D02*
X175800000Y-82800000D01*
%TO.N,/MCU/SWCLK*%
X171000000Y-112600000D02*
X171981000Y-111619000D01*
X171981000Y-85619000D02*
X175000000Y-82600000D01*
X171981000Y-111619000D02*
X171981000Y-85619000D01*
%TO.N,Net-(U3-BOOT0)*%
X175600000Y-81200000D02*
X172800000Y-81200000D01*
X177000000Y-82600000D02*
X175600000Y-81200000D01*
X172800000Y-81200000D02*
X172000000Y-80400000D01*
X183800000Y-97200000D02*
X183800000Y-92200000D01*
X183800000Y-92200000D02*
X177000000Y-85400000D01*
X177000000Y-85400000D02*
X177000000Y-82600000D01*
%TO.N,Net-(D4-K)*%
X161000000Y-74600000D02*
X161000000Y-74800000D01*
X163000000Y-72600000D02*
X161000000Y-74600000D01*
X173000000Y-71600000D02*
X172000000Y-72600000D01*
X172000000Y-72600000D02*
X163000000Y-72600000D01*
%TO.N,ADC1_IN2*%
X163600000Y-97600000D02*
X163600000Y-89200000D01*
X163600000Y-89200000D02*
X164600000Y-88200000D01*
%TO.N,BATT_LOW*%
X181200000Y-69600000D02*
X181200000Y-75400000D01*
%TO.N,/MCU/BLE_MODE*%
X177400000Y-62400000D02*
X178400000Y-62400000D01*
X175000000Y-66800000D02*
X173800000Y-65600000D01*
X174200000Y-65600000D02*
X177400000Y-62400000D01*
X175800000Y-74400000D02*
X175800000Y-69400000D01*
X173800000Y-65600000D02*
X174200000Y-65600000D01*
X175800000Y-69400000D02*
X175000000Y-68600000D01*
X176600000Y-75200000D02*
X175800000Y-74400000D01*
X175000000Y-68600000D02*
X175000000Y-66800000D01*
%TO.N,BUT_PRESS*%
X181800000Y-68800000D02*
X181800000Y-74400000D01*
X181800000Y-74400000D02*
X182224265Y-74824265D01*
%TO.N,/MCU/BLE_UART_RX_IND*%
X164400000Y-77600000D02*
X164400000Y-73600000D01*
%TO.N,I2C2_SCL*%
X178400000Y-92001000D02*
X178200000Y-91801000D01*
X178200000Y-91801000D02*
X178200000Y-88600000D01*
X178400000Y-92400000D02*
X178400000Y-92001000D01*
X178200000Y-88600000D02*
X177200000Y-87600000D01*
%TO.N,I2C2_SDA*%
X174200000Y-91600000D02*
X174200000Y-86000000D01*
%TO.N,AUTO_DIM*%
X175000000Y-86800000D02*
X176600000Y-86800000D01*
X175000000Y-100000000D02*
X175000000Y-86800000D01*
%TO.N,/MCU/UART5_RX*%
X166401000Y-73400000D02*
X168201000Y-75200000D01*
X168201000Y-75200000D02*
X174000000Y-75200000D01*
X174650000Y-75850000D02*
X174650000Y-76000000D01*
X174000000Y-75200000D02*
X174650000Y-75850000D01*
X166400000Y-73400000D02*
X166401000Y-73400000D01*
%TO.N,POWER*%
X187200000Y-78000000D02*
X184400000Y-78000000D01*
X179800000Y-82600000D02*
X177800000Y-82600000D01*
X184400000Y-78000000D02*
X179800000Y-82600000D01*
X193200000Y-71000000D02*
X193200000Y-72000000D01*
X193200000Y-72000000D02*
X187200000Y-78000000D01*
%TO.N,/MCU/UART5_TX*%
X166401000Y-77150943D02*
X166425029Y-77174971D01*
X165800000Y-74475735D02*
X165875735Y-74475735D01*
X165875735Y-74475735D02*
X166401000Y-75001000D01*
X166401000Y-75001000D02*
X166401000Y-77150943D01*
X175400000Y-79400000D02*
X175000000Y-79800000D01*
X167825029Y-78574971D02*
X166425029Y-77174971D01*
X166425029Y-78774971D02*
X164800000Y-80400000D01*
X164800000Y-80400000D02*
X162800000Y-80400000D01*
X169050057Y-79800000D02*
X167825029Y-78574971D01*
X175000000Y-79800000D02*
X169050057Y-79800000D01*
X166425029Y-77174971D02*
X166425029Y-78774971D01*
%TO.N,MODE*%
X177328000Y-84223470D02*
X177551470Y-84000000D01*
X186000000Y-98506960D02*
X186000000Y-93600000D01*
X177328000Y-84928000D02*
X177328000Y-84223470D01*
X184553480Y-99953480D02*
X186000000Y-98506960D01*
X186000000Y-93600000D02*
X177328000Y-84928000D01*
X177551470Y-84000000D02*
X177800000Y-84000000D01*
%TO.N,Net-(U6-OUT+)*%
X165201000Y-86001000D02*
X164200000Y-85000000D01*
X164400000Y-99000000D02*
X164272000Y-98872000D01*
X164272000Y-89377943D02*
X165201000Y-88448943D01*
X164200000Y-85000000D02*
X163000000Y-85000000D01*
X165201000Y-88448943D02*
X165201000Y-86001000D01*
X164272000Y-98872000D02*
X164272000Y-89377943D01*
%TO.N,Net-(U6-OUT-)*%
X165000000Y-98600000D02*
X165000000Y-89800000D01*
X167000000Y-85000000D02*
X166600000Y-85400000D01*
X165848527Y-99448527D02*
X165000000Y-98600000D01*
X167000000Y-87800000D02*
X167000000Y-85000000D01*
X165000000Y-89800000D02*
X167000000Y-87800000D01*
X166000000Y-99448527D02*
X165848527Y-99448527D01*
%TO.N,LRA_TRIG*%
X167641051Y-92758949D02*
X165800000Y-94600000D01*
X165800000Y-94600000D02*
X165775735Y-94575735D01*
X167641051Y-91547017D02*
X167641051Y-92758949D01*
%TO.N,LRA_EN*%
X165765470Y-95386000D02*
X165951470Y-95200000D01*
X168400000Y-92800000D02*
X168400000Y-91800000D01*
X166000000Y-95200000D02*
X168400000Y-92800000D01*
X165951470Y-95200000D02*
X166000000Y-95200000D01*
%TO.N,/MCU/BLE_STATUS1*%
X172762867Y-73001000D02*
X172762867Y-73037132D01*
X172762867Y-73037132D02*
X175950000Y-76224265D01*
%TO.N,Net-(U3-PB1)*%
X176200000Y-92400000D02*
X176400000Y-92200000D01*
X175600000Y-96200000D02*
X176200000Y-95600000D01*
X176200000Y-95600000D02*
X176200000Y-92400000D01*
%TO.N,/MCU/ACC_INT*%
X175600000Y-91800000D02*
X175600000Y-94400000D01*
%TD*%
M02*
