%TF.GenerationSoftware,KiCad,Pcbnew,9.0.4*%
%TF.CreationDate,2025-11-12T13:23:21-05:00*%
%TF.ProjectId,um_led,756d5f6c-6564-42e6-9b69-6361645f7063,rev?*%
%TF.SameCoordinates,Original*%
%TF.FileFunction,Legend,Bot*%
%TF.FilePolarity,Positive*%
%FSLAX46Y46*%
G04 Gerber Fmt 4.6, Leading zero omitted, Abs format (unit mm)*
G04 Created by KiCad (PCBNEW 9.0.4) date 2025-11-12 13:23:21*
%MOMM*%
%LPD*%
G01*
G04 APERTURE LIST*
%ADD10C,0.100000*%
%ADD11C,0.150000*%
%ADD12C,0.508000*%
%ADD13C,0.120000*%
G04 APERTURE END LIST*
D10*
X171032100Y-64600000D02*
X198032100Y-64600000D01*
X198032100Y-102100000D01*
X171032100Y-102100000D01*
X171032100Y-64600000D01*
X169849691Y-99249691D02*
G75*
G02*
X161750309Y-99249691I-4049691J0D01*
G01*
X161750309Y-99249691D02*
G75*
G02*
X169849691Y-99249691I4049691J0D01*
G01*
D11*
X195414285Y-128131009D02*
X195271428Y-128178628D01*
X195271428Y-128178628D02*
X195223809Y-128226247D01*
X195223809Y-128226247D02*
X195176190Y-128321485D01*
X195176190Y-128321485D02*
X195176190Y-128464342D01*
X195176190Y-128464342D02*
X195223809Y-128559580D01*
X195223809Y-128559580D02*
X195271428Y-128607200D01*
X195271428Y-128607200D02*
X195366666Y-128654819D01*
X195366666Y-128654819D02*
X195747618Y-128654819D01*
X195747618Y-128654819D02*
X195747618Y-127654819D01*
X195747618Y-127654819D02*
X195414285Y-127654819D01*
X195414285Y-127654819D02*
X195319047Y-127702438D01*
X195319047Y-127702438D02*
X195271428Y-127750057D01*
X195271428Y-127750057D02*
X195223809Y-127845295D01*
X195223809Y-127845295D02*
X195223809Y-127940533D01*
X195223809Y-127940533D02*
X195271428Y-128035771D01*
X195271428Y-128035771D02*
X195319047Y-128083390D01*
X195319047Y-128083390D02*
X195414285Y-128131009D01*
X195414285Y-128131009D02*
X195747618Y-128131009D01*
X194795237Y-128369104D02*
X194319047Y-128369104D01*
X194890475Y-128654819D02*
X194557142Y-127654819D01*
X194557142Y-127654819D02*
X194223809Y-128654819D01*
X194033332Y-127654819D02*
X193461904Y-127654819D01*
X193747618Y-128654819D02*
X193747618Y-127654819D01*
X192604761Y-128654819D02*
X193176189Y-128654819D01*
X192890475Y-128654819D02*
X192890475Y-127654819D01*
X192890475Y-127654819D02*
X192985713Y-127797676D01*
X192985713Y-127797676D02*
X193080951Y-127892914D01*
X193080951Y-127892914D02*
X193176189Y-127940533D01*
X164738094Y-86452819D02*
X164166666Y-86452819D01*
X164452380Y-87452819D02*
X164452380Y-86452819D01*
X163833332Y-87452819D02*
X163833332Y-86452819D01*
X163833332Y-86452819D02*
X163452380Y-86452819D01*
X163452380Y-86452819D02*
X163357142Y-86500438D01*
X163357142Y-86500438D02*
X163309523Y-86548057D01*
X163309523Y-86548057D02*
X163261904Y-86643295D01*
X163261904Y-86643295D02*
X163261904Y-86786152D01*
X163261904Y-86786152D02*
X163309523Y-86881390D01*
X163309523Y-86881390D02*
X163357142Y-86929009D01*
X163357142Y-86929009D02*
X163452380Y-86976628D01*
X163452380Y-86976628D02*
X163833332Y-86976628D01*
X162309523Y-87452819D02*
X162880951Y-87452819D01*
X162595237Y-87452819D02*
X162595237Y-86452819D01*
X162595237Y-86452819D02*
X162690475Y-86595676D01*
X162690475Y-86595676D02*
X162785713Y-86690914D01*
X162785713Y-86690914D02*
X162880951Y-86738533D01*
X161690475Y-86452819D02*
X161595237Y-86452819D01*
X161595237Y-86452819D02*
X161499999Y-86500438D01*
X161499999Y-86500438D02*
X161452380Y-86548057D01*
X161452380Y-86548057D02*
X161404761Y-86643295D01*
X161404761Y-86643295D02*
X161357142Y-86833771D01*
X161357142Y-86833771D02*
X161357142Y-87071866D01*
X161357142Y-87071866D02*
X161404761Y-87262342D01*
X161404761Y-87262342D02*
X161452380Y-87357580D01*
X161452380Y-87357580D02*
X161499999Y-87405200D01*
X161499999Y-87405200D02*
X161595237Y-87452819D01*
X161595237Y-87452819D02*
X161690475Y-87452819D01*
X161690475Y-87452819D02*
X161785713Y-87405200D01*
X161785713Y-87405200D02*
X161833332Y-87357580D01*
X161833332Y-87357580D02*
X161880951Y-87262342D01*
X161880951Y-87262342D02*
X161928570Y-87071866D01*
X161928570Y-87071866D02*
X161928570Y-86833771D01*
X161928570Y-86833771D02*
X161880951Y-86643295D01*
X161880951Y-86643295D02*
X161833332Y-86548057D01*
X161833332Y-86548057D02*
X161785713Y-86500438D01*
X161785713Y-86500438D02*
X161690475Y-86452819D01*
X168738094Y-86452819D02*
X168166666Y-86452819D01*
X168452380Y-87452819D02*
X168452380Y-86452819D01*
X167833332Y-87452819D02*
X167833332Y-86452819D01*
X167833332Y-86452819D02*
X167452380Y-86452819D01*
X167452380Y-86452819D02*
X167357142Y-86500438D01*
X167357142Y-86500438D02*
X167309523Y-86548057D01*
X167309523Y-86548057D02*
X167261904Y-86643295D01*
X167261904Y-86643295D02*
X167261904Y-86786152D01*
X167261904Y-86786152D02*
X167309523Y-86881390D01*
X167309523Y-86881390D02*
X167357142Y-86929009D01*
X167357142Y-86929009D02*
X167452380Y-86976628D01*
X167452380Y-86976628D02*
X167833332Y-86976628D01*
X166309523Y-87452819D02*
X166880951Y-87452819D01*
X166595237Y-87452819D02*
X166595237Y-86452819D01*
X166595237Y-86452819D02*
X166690475Y-86595676D01*
X166690475Y-86595676D02*
X166785713Y-86690914D01*
X166785713Y-86690914D02*
X166880951Y-86738533D01*
X165357142Y-87452819D02*
X165928570Y-87452819D01*
X165642856Y-87452819D02*
X165642856Y-86452819D01*
X165642856Y-86452819D02*
X165738094Y-86595676D01*
X165738094Y-86595676D02*
X165833332Y-86690914D01*
X165833332Y-86690914D02*
X165928570Y-86738533D01*
D12*
%TO.C,SW2*%
X170006200Y-124806400D02*
G75*
G02*
X169244200Y-124806400I-381000J0D01*
G01*
X169244200Y-124806400D02*
G75*
G02*
X170006200Y-124806400I381000J0D01*
G01*
D13*
%TO.C,BAT1*%
X191140000Y-119290000D02*
X197260000Y-119290000D01*
X191140000Y-125510000D02*
X192060000Y-125510000D01*
X191140000Y-127110000D02*
X191140000Y-119290000D01*
X191900000Y-121550000D02*
X192900000Y-121550000D01*
X191900000Y-123150000D02*
X191900000Y-121550000D01*
X192060000Y-125510000D02*
X192060000Y-127110000D01*
X192060000Y-127110000D02*
X191140000Y-127110000D01*
X192340000Y-125510000D02*
X192060000Y-125510000D01*
X192340000Y-125510000D02*
X192340000Y-126725000D01*
X192400000Y-121550000D02*
X192400000Y-119290000D01*
X192900000Y-121550000D02*
X192900000Y-119290000D01*
X192900000Y-121550000D02*
X192900000Y-123150000D01*
X192900000Y-123150000D02*
X191900000Y-123150000D01*
X193700000Y-119290000D02*
X193700000Y-123650000D01*
X193700000Y-123650000D02*
X194700000Y-123650000D01*
X194700000Y-123650000D02*
X194700000Y-119290000D01*
X195500000Y-121550000D02*
X195500000Y-123150000D01*
X195500000Y-123150000D02*
X196500000Y-123150000D01*
X196340000Y-125510000D02*
X196060000Y-125510000D01*
X196340000Y-127110000D02*
X196340000Y-125510000D01*
X196500000Y-121550000D02*
X195500000Y-121550000D01*
X196500000Y-123150000D02*
X196500000Y-121550000D01*
X197260000Y-119290000D02*
X197260000Y-127110000D01*
X197260000Y-125510000D02*
X196340000Y-125510000D01*
X197260000Y-127110000D02*
X196340000Y-127110000D01*
%TO.C,TP10*%
X161800000Y-83800000D02*
X161800000Y-86200000D01*
X161800000Y-86200000D02*
X164200000Y-86200000D01*
X164200000Y-83800000D02*
X161800000Y-83800000D01*
X164200000Y-86200000D02*
X164200000Y-83800000D01*
%TO.C,TP11*%
X165800000Y-83800000D02*
X165800000Y-86200000D01*
X165800000Y-86200000D02*
X168200000Y-86200000D01*
X168200000Y-83800000D02*
X165800000Y-83800000D01*
X168200000Y-86200000D02*
X168200000Y-83800000D01*
%TD*%
M02*
