%TF.GenerationSoftware,KiCad,Pcbnew,9.0.4*%
%TF.CreationDate,2025-11-12T13:23:21-05:00*%
%TF.ProjectId,um_led,756d5f6c-6564-42e6-9b69-6361645f7063,rev?*%
%TF.SameCoordinates,Original*%
%TF.FileFunction,Soldermask,Bot*%
%TF.FilePolarity,Negative*%
%FSLAX46Y46*%
G04 Gerber Fmt 4.6, Leading zero omitted, Abs format (unit mm)*
G04 Created by KiCad (PCBNEW 9.0.4) date 2025-11-12 13:23:21*
%MOMM*%
%LPD*%
G01*
G04 APERTURE LIST*
G04 Aperture macros list*
%AMRoundRect*
0 Rectangle with rounded corners*
0 $1 Rounding radius*
0 $2 $3 $4 $5 $6 $7 $8 $9 X,Y pos of 4 corners*
0 Add a 4 corners polygon primitive as box body*
4,1,4,$2,$3,$4,$5,$6,$7,$8,$9,$2,$3,0*
0 Add four circle primitives for the rounded corners*
1,1,$1+$1,$2,$3*
1,1,$1+$1,$4,$5*
1,1,$1+$1,$6,$7*
1,1,$1+$1,$8,$9*
0 Add four rect primitives between the rounded corners*
20,1,$1+$1,$2,$3,$4,$5,0*
20,1,$1+$1,$4,$5,$6,$7,0*
20,1,$1+$1,$6,$7,$8,$9,0*
20,1,$1+$1,$8,$9,$2,$3,0*%
G04 Aperture macros list end*
%ADD10C,0.010000*%
%ADD11O,1.304000X2.804000*%
%ADD12R,1.498600X1.498600*%
%ADD13C,1.498600*%
%ADD14C,1.734000*%
%ADD15C,2.374900*%
%ADD16C,0.990600*%
%ADD17RoundRect,0.250000X-0.350000X-0.625000X0.350000X-0.625000X0.350000X0.625000X-0.350000X0.625000X0*%
%ADD18O,1.200000X1.750000*%
%ADD19R,2.000000X2.000000*%
G04 APERTURE END LIST*
D10*
%TO.C,J1*%
X176461000Y-121088500D02*
X176493000Y-121090500D01*
X176524000Y-121094500D01*
X176555000Y-121100500D01*
X176585000Y-121107500D01*
X176615000Y-121116500D01*
X176645000Y-121127500D01*
X176674000Y-121139500D01*
X176702000Y-121152500D01*
X176730000Y-121167500D01*
X176757000Y-121184500D01*
X176783000Y-121202500D01*
X176808000Y-121221500D01*
X176831000Y-121241500D01*
X176854000Y-121263500D01*
X176876000Y-121286500D01*
X176896000Y-121309500D01*
X176915000Y-121334500D01*
X176933000Y-121360500D01*
X176950000Y-121387500D01*
X176965000Y-121415500D01*
X176978000Y-121443500D01*
X176990000Y-121472500D01*
X177001000Y-121502500D01*
X177010000Y-121532500D01*
X177017000Y-121562500D01*
X177023000Y-121593500D01*
X177027000Y-121624500D01*
X177029000Y-121656500D01*
X177030000Y-121687500D01*
X177030000Y-122187500D01*
X177030000Y-122687500D01*
X177029000Y-122718500D01*
X177027000Y-122750500D01*
X177023000Y-122781500D01*
X177017000Y-122812500D01*
X177010000Y-122842500D01*
X177001000Y-122872500D01*
X176990000Y-122902500D01*
X176978000Y-122931500D01*
X176965000Y-122959500D01*
X176950000Y-122987500D01*
X176933000Y-123014500D01*
X176915000Y-123040500D01*
X176896000Y-123065500D01*
X176876000Y-123088500D01*
X176854000Y-123111500D01*
X176831000Y-123133500D01*
X176808000Y-123153500D01*
X176783000Y-123172500D01*
X176757000Y-123190500D01*
X176730000Y-123207500D01*
X176702000Y-123222500D01*
X176674000Y-123235500D01*
X176645000Y-123247500D01*
X176615000Y-123258500D01*
X176585000Y-123267500D01*
X176555000Y-123274500D01*
X176524000Y-123280500D01*
X176493000Y-123284500D01*
X176461000Y-123286500D01*
X176430000Y-123287500D01*
X176399000Y-123286500D01*
X176367000Y-123284500D01*
X176336000Y-123280500D01*
X176305000Y-123274500D01*
X176275000Y-123267500D01*
X176245000Y-123258500D01*
X176215000Y-123247500D01*
X176186000Y-123235500D01*
X176158000Y-123222500D01*
X176130000Y-123207500D01*
X176103000Y-123190500D01*
X176077000Y-123172500D01*
X176052000Y-123153500D01*
X176029000Y-123133500D01*
X176006000Y-123111500D01*
X175984000Y-123088500D01*
X175964000Y-123065500D01*
X175945000Y-123040500D01*
X175927000Y-123014500D01*
X175910000Y-122987500D01*
X175895000Y-122959500D01*
X175882000Y-122931500D01*
X175870000Y-122902500D01*
X175859000Y-122872500D01*
X175850000Y-122842500D01*
X175843000Y-122812500D01*
X175837000Y-122781500D01*
X175833000Y-122750500D01*
X175831000Y-122718500D01*
X175830000Y-122687500D01*
X175830000Y-122137500D01*
X175830000Y-121687500D01*
X175831000Y-121656500D01*
X175833000Y-121624500D01*
X175837000Y-121593500D01*
X175843000Y-121562500D01*
X175850000Y-121532500D01*
X175859000Y-121502500D01*
X175870000Y-121472500D01*
X175882000Y-121443500D01*
X175895000Y-121415500D01*
X175910000Y-121387500D01*
X175927000Y-121360500D01*
X175945000Y-121334500D01*
X175964000Y-121309500D01*
X175984000Y-121286500D01*
X176006000Y-121263500D01*
X176029000Y-121241500D01*
X176052000Y-121221500D01*
X176077000Y-121202500D01*
X176103000Y-121184500D01*
X176130000Y-121167500D01*
X176158000Y-121152500D01*
X176186000Y-121139500D01*
X176215000Y-121127500D01*
X176245000Y-121116500D01*
X176275000Y-121107500D01*
X176305000Y-121100500D01*
X176336000Y-121094500D01*
X176367000Y-121090500D01*
X176399000Y-121088500D01*
X176430000Y-121087500D01*
X176461000Y-121088500D01*
G36*
X176461000Y-121088500D02*
G01*
X176493000Y-121090500D01*
X176524000Y-121094500D01*
X176555000Y-121100500D01*
X176585000Y-121107500D01*
X176615000Y-121116500D01*
X176645000Y-121127500D01*
X176674000Y-121139500D01*
X176702000Y-121152500D01*
X176730000Y-121167500D01*
X176757000Y-121184500D01*
X176783000Y-121202500D01*
X176808000Y-121221500D01*
X176831000Y-121241500D01*
X176854000Y-121263500D01*
X176876000Y-121286500D01*
X176896000Y-121309500D01*
X176915000Y-121334500D01*
X176933000Y-121360500D01*
X176950000Y-121387500D01*
X176965000Y-121415500D01*
X176978000Y-121443500D01*
X176990000Y-121472500D01*
X177001000Y-121502500D01*
X177010000Y-121532500D01*
X177017000Y-121562500D01*
X177023000Y-121593500D01*
X177027000Y-121624500D01*
X177029000Y-121656500D01*
X177030000Y-121687500D01*
X177030000Y-122187500D01*
X177030000Y-122687500D01*
X177029000Y-122718500D01*
X177027000Y-122750500D01*
X177023000Y-122781500D01*
X177017000Y-122812500D01*
X177010000Y-122842500D01*
X177001000Y-122872500D01*
X176990000Y-122902500D01*
X176978000Y-122931500D01*
X176965000Y-122959500D01*
X176950000Y-122987500D01*
X176933000Y-123014500D01*
X176915000Y-123040500D01*
X176896000Y-123065500D01*
X176876000Y-123088500D01*
X176854000Y-123111500D01*
X176831000Y-123133500D01*
X176808000Y-123153500D01*
X176783000Y-123172500D01*
X176757000Y-123190500D01*
X176730000Y-123207500D01*
X176702000Y-123222500D01*
X176674000Y-123235500D01*
X176645000Y-123247500D01*
X176615000Y-123258500D01*
X176585000Y-123267500D01*
X176555000Y-123274500D01*
X176524000Y-123280500D01*
X176493000Y-123284500D01*
X176461000Y-123286500D01*
X176430000Y-123287500D01*
X176399000Y-123286500D01*
X176367000Y-123284500D01*
X176336000Y-123280500D01*
X176305000Y-123274500D01*
X176275000Y-123267500D01*
X176245000Y-123258500D01*
X176215000Y-123247500D01*
X176186000Y-123235500D01*
X176158000Y-123222500D01*
X176130000Y-123207500D01*
X176103000Y-123190500D01*
X176077000Y-123172500D01*
X176052000Y-123153500D01*
X176029000Y-123133500D01*
X176006000Y-123111500D01*
X175984000Y-123088500D01*
X175964000Y-123065500D01*
X175945000Y-123040500D01*
X175927000Y-123014500D01*
X175910000Y-122987500D01*
X175895000Y-122959500D01*
X175882000Y-122931500D01*
X175870000Y-122902500D01*
X175859000Y-122872500D01*
X175850000Y-122842500D01*
X175843000Y-122812500D01*
X175837000Y-122781500D01*
X175833000Y-122750500D01*
X175831000Y-122718500D01*
X175830000Y-122687500D01*
X175830000Y-122137500D01*
X175830000Y-121687500D01*
X175831000Y-121656500D01*
X175833000Y-121624500D01*
X175837000Y-121593500D01*
X175843000Y-121562500D01*
X175850000Y-121532500D01*
X175859000Y-121502500D01*
X175870000Y-121472500D01*
X175882000Y-121443500D01*
X175895000Y-121415500D01*
X175910000Y-121387500D01*
X175927000Y-121360500D01*
X175945000Y-121334500D01*
X175964000Y-121309500D01*
X175984000Y-121286500D01*
X176006000Y-121263500D01*
X176029000Y-121241500D01*
X176052000Y-121221500D01*
X176077000Y-121202500D01*
X176103000Y-121184500D01*
X176130000Y-121167500D01*
X176158000Y-121152500D01*
X176186000Y-121139500D01*
X176215000Y-121127500D01*
X176245000Y-121116500D01*
X176275000Y-121107500D01*
X176305000Y-121100500D01*
X176336000Y-121094500D01*
X176367000Y-121090500D01*
X176399000Y-121088500D01*
X176430000Y-121087500D01*
X176461000Y-121088500D01*
G37*
X185101000Y-121088500D02*
X185133000Y-121090500D01*
X185164000Y-121094500D01*
X185195000Y-121100500D01*
X185225000Y-121107500D01*
X185255000Y-121116500D01*
X185285000Y-121127500D01*
X185314000Y-121139500D01*
X185342000Y-121152500D01*
X185370000Y-121167500D01*
X185397000Y-121184500D01*
X185423000Y-121202500D01*
X185448000Y-121221500D01*
X185471000Y-121241500D01*
X185494000Y-121263500D01*
X185516000Y-121286500D01*
X185536000Y-121309500D01*
X185555000Y-121334500D01*
X185573000Y-121360500D01*
X185590000Y-121387500D01*
X185605000Y-121415500D01*
X185618000Y-121443500D01*
X185630000Y-121472500D01*
X185641000Y-121502500D01*
X185650000Y-121532500D01*
X185657000Y-121562500D01*
X185663000Y-121593500D01*
X185667000Y-121624500D01*
X185669000Y-121656500D01*
X185670000Y-121687500D01*
X185670000Y-122187500D01*
X185670000Y-122687500D01*
X185669000Y-122718500D01*
X185667000Y-122750500D01*
X185663000Y-122781500D01*
X185657000Y-122812500D01*
X185650000Y-122842500D01*
X185641000Y-122872500D01*
X185630000Y-122902500D01*
X185618000Y-122931500D01*
X185605000Y-122959500D01*
X185590000Y-122987500D01*
X185573000Y-123014500D01*
X185555000Y-123040500D01*
X185536000Y-123065500D01*
X185516000Y-123088500D01*
X185494000Y-123111500D01*
X185471000Y-123133500D01*
X185448000Y-123153500D01*
X185423000Y-123172500D01*
X185397000Y-123190500D01*
X185370000Y-123207500D01*
X185342000Y-123222500D01*
X185314000Y-123235500D01*
X185285000Y-123247500D01*
X185255000Y-123258500D01*
X185225000Y-123267500D01*
X185195000Y-123274500D01*
X185164000Y-123280500D01*
X185133000Y-123284500D01*
X185101000Y-123286500D01*
X185070000Y-123287500D01*
X185039000Y-123286500D01*
X185007000Y-123284500D01*
X184976000Y-123280500D01*
X184945000Y-123274500D01*
X184915000Y-123267500D01*
X184885000Y-123258500D01*
X184855000Y-123247500D01*
X184826000Y-123235500D01*
X184798000Y-123222500D01*
X184770000Y-123207500D01*
X184743000Y-123190500D01*
X184717000Y-123172500D01*
X184692000Y-123153500D01*
X184669000Y-123133500D01*
X184646000Y-123111500D01*
X184624000Y-123088500D01*
X184604000Y-123065500D01*
X184585000Y-123040500D01*
X184567000Y-123014500D01*
X184550000Y-122987500D01*
X184535000Y-122959500D01*
X184522000Y-122931500D01*
X184510000Y-122902500D01*
X184499000Y-122872500D01*
X184490000Y-122842500D01*
X184483000Y-122812500D01*
X184477000Y-122781500D01*
X184473000Y-122750500D01*
X184471000Y-122718500D01*
X184470000Y-122687500D01*
X184470000Y-122137500D01*
X184470000Y-121687500D01*
X184471000Y-121656500D01*
X184473000Y-121624500D01*
X184477000Y-121593500D01*
X184483000Y-121562500D01*
X184490000Y-121532500D01*
X184499000Y-121502500D01*
X184510000Y-121472500D01*
X184522000Y-121443500D01*
X184535000Y-121415500D01*
X184550000Y-121387500D01*
X184567000Y-121360500D01*
X184585000Y-121334500D01*
X184604000Y-121309500D01*
X184624000Y-121286500D01*
X184646000Y-121263500D01*
X184669000Y-121241500D01*
X184692000Y-121221500D01*
X184717000Y-121202500D01*
X184743000Y-121184500D01*
X184770000Y-121167500D01*
X184798000Y-121152500D01*
X184826000Y-121139500D01*
X184855000Y-121127500D01*
X184885000Y-121116500D01*
X184915000Y-121107500D01*
X184945000Y-121100500D01*
X184976000Y-121094500D01*
X185007000Y-121090500D01*
X185039000Y-121088500D01*
X185070000Y-121087500D01*
X185101000Y-121088500D01*
G36*
X185101000Y-121088500D02*
G01*
X185133000Y-121090500D01*
X185164000Y-121094500D01*
X185195000Y-121100500D01*
X185225000Y-121107500D01*
X185255000Y-121116500D01*
X185285000Y-121127500D01*
X185314000Y-121139500D01*
X185342000Y-121152500D01*
X185370000Y-121167500D01*
X185397000Y-121184500D01*
X185423000Y-121202500D01*
X185448000Y-121221500D01*
X185471000Y-121241500D01*
X185494000Y-121263500D01*
X185516000Y-121286500D01*
X185536000Y-121309500D01*
X185555000Y-121334500D01*
X185573000Y-121360500D01*
X185590000Y-121387500D01*
X185605000Y-121415500D01*
X185618000Y-121443500D01*
X185630000Y-121472500D01*
X185641000Y-121502500D01*
X185650000Y-121532500D01*
X185657000Y-121562500D01*
X185663000Y-121593500D01*
X185667000Y-121624500D01*
X185669000Y-121656500D01*
X185670000Y-121687500D01*
X185670000Y-122187500D01*
X185670000Y-122687500D01*
X185669000Y-122718500D01*
X185667000Y-122750500D01*
X185663000Y-122781500D01*
X185657000Y-122812500D01*
X185650000Y-122842500D01*
X185641000Y-122872500D01*
X185630000Y-122902500D01*
X185618000Y-122931500D01*
X185605000Y-122959500D01*
X185590000Y-122987500D01*
X185573000Y-123014500D01*
X185555000Y-123040500D01*
X185536000Y-123065500D01*
X185516000Y-123088500D01*
X185494000Y-123111500D01*
X185471000Y-123133500D01*
X185448000Y-123153500D01*
X185423000Y-123172500D01*
X185397000Y-123190500D01*
X185370000Y-123207500D01*
X185342000Y-123222500D01*
X185314000Y-123235500D01*
X185285000Y-123247500D01*
X185255000Y-123258500D01*
X185225000Y-123267500D01*
X185195000Y-123274500D01*
X185164000Y-123280500D01*
X185133000Y-123284500D01*
X185101000Y-123286500D01*
X185070000Y-123287500D01*
X185039000Y-123286500D01*
X185007000Y-123284500D01*
X184976000Y-123280500D01*
X184945000Y-123274500D01*
X184915000Y-123267500D01*
X184885000Y-123258500D01*
X184855000Y-123247500D01*
X184826000Y-123235500D01*
X184798000Y-123222500D01*
X184770000Y-123207500D01*
X184743000Y-123190500D01*
X184717000Y-123172500D01*
X184692000Y-123153500D01*
X184669000Y-123133500D01*
X184646000Y-123111500D01*
X184624000Y-123088500D01*
X184604000Y-123065500D01*
X184585000Y-123040500D01*
X184567000Y-123014500D01*
X184550000Y-122987500D01*
X184535000Y-122959500D01*
X184522000Y-122931500D01*
X184510000Y-122902500D01*
X184499000Y-122872500D01*
X184490000Y-122842500D01*
X184483000Y-122812500D01*
X184477000Y-122781500D01*
X184473000Y-122750500D01*
X184471000Y-122718500D01*
X184470000Y-122687500D01*
X184470000Y-122137500D01*
X184470000Y-121687500D01*
X184471000Y-121656500D01*
X184473000Y-121624500D01*
X184477000Y-121593500D01*
X184483000Y-121562500D01*
X184490000Y-121532500D01*
X184499000Y-121502500D01*
X184510000Y-121472500D01*
X184522000Y-121443500D01*
X184535000Y-121415500D01*
X184550000Y-121387500D01*
X184567000Y-121360500D01*
X184585000Y-121334500D01*
X184604000Y-121309500D01*
X184624000Y-121286500D01*
X184646000Y-121263500D01*
X184669000Y-121241500D01*
X184692000Y-121221500D01*
X184717000Y-121202500D01*
X184743000Y-121184500D01*
X184770000Y-121167500D01*
X184798000Y-121152500D01*
X184826000Y-121139500D01*
X184855000Y-121127500D01*
X184885000Y-121116500D01*
X184915000Y-121107500D01*
X184945000Y-121100500D01*
X184976000Y-121094500D01*
X185007000Y-121090500D01*
X185039000Y-121088500D01*
X185070000Y-121087500D01*
X185101000Y-121088500D01*
G37*
%TD*%
D11*
%TO.C,J1*%
X176430000Y-127547500D03*
X185070000Y-127547500D03*
%TD*%
D12*
%TO.C,U5*%
X177330000Y-73140000D03*
D13*
X178600000Y-70600000D03*
X179870000Y-73140000D03*
%TD*%
D14*
%TO.C,TP12*%
X177400000Y-65800000D03*
%TD*%
%TO.C,TP8*%
X162800000Y-80400000D03*
%TD*%
%TO.C,TP7*%
X162800000Y-77000000D03*
%TD*%
%TO.C,TP6*%
X178400000Y-62400000D03*
%TD*%
D15*
%TO.C,J2*%
X163844000Y-117820000D03*
D16*
X166384000Y-117820000D03*
D15*
X168924000Y-117820000D03*
X163844000Y-112105000D03*
X168924000Y-112105000D03*
D16*
X165368000Y-110200000D03*
X167400000Y-110200000D03*
%TD*%
D14*
%TO.C,TP9*%
X174800000Y-62400000D03*
%TD*%
D17*
%TO.C,BAT1*%
X193200000Y-125650000D03*
D18*
X195200000Y-125650000D03*
%TD*%
D19*
%TO.C,TP10*%
X163000000Y-85000000D03*
%TD*%
%TO.C,TP11*%
X167000000Y-85000000D03*
%TD*%
M02*
