%TF.GenerationSoftware,KiCad,Pcbnew,9.0.4*%
%TF.CreationDate,2025-11-12T13:23:21-05:00*%
%TF.ProjectId,um_led,756d5f6c-6564-42e6-9b69-6361645f7063,rev?*%
%TF.SameCoordinates,Original*%
%TF.FileFunction,Copper,L1,Top*%
%TF.FilePolarity,Positive*%
%FSLAX46Y46*%
G04 Gerber Fmt 4.6, Leading zero omitted, Abs format (unit mm)*
G04 Created by KiCad (PCBNEW 9.0.4) date 2025-11-12 13:23:21*
%MOMM*%
%LPD*%
G01*
G04 APERTURE LIST*
G04 Aperture macros list*
%AMRoundRect*
0 Rectangle with rounded corners*
0 $1 Rounding radius*
0 $2 $3 $4 $5 $6 $7 $8 $9 X,Y pos of 4 corners*
0 Add a 4 corners polygon primitive as box body*
4,1,4,$2,$3,$4,$5,$6,$7,$8,$9,$2,$3,0*
0 Add four circle primitives for the rounded corners*
1,1,$1+$1,$2,$3*
1,1,$1+$1,$4,$5*
1,1,$1+$1,$6,$7*
1,1,$1+$1,$8,$9*
0 Add four rect primitives between the rounded corners*
20,1,$1+$1,$2,$3,$4,$5,0*
20,1,$1+$1,$4,$5,$6,$7,0*
20,1,$1+$1,$6,$7,$8,$9,0*
20,1,$1+$1,$8,$9,$2,$3,0*%
%AMOutline4P*
0 Free polygon, 4 corners , with rotation*
0 The origin of the aperture is its center*
0 number of corners: always 4*
0 $1 to $8 corner X, Y*
0 $9 Rotation angle, in degrees counterclockwise*
0 create outline with 4 corners*
4,1,4,$1,$2,$3,$4,$5,$6,$7,$8,$1,$2,$9*%
%AMFreePoly0*
4,1,237,0.029172,1.053997,0.029356,1.053987,0.057356,1.051987,0.057683,1.051953,0.086683,1.047953,0.086879,1.047922,0.114879,1.042922,0.115213,1.042851,0.143213,1.035851,0.143374,1.035808,0.171374,1.027808,0.171737,1.027689,0.198737,1.017689,0.198886,1.017630,0.225886,1.006630,0.226095,1.006540,0.252095,0.994540,0.252443,0.994363,0.277443,0.980363,0.277572,0.980287,
0.302572,0.965287,0.302855,0.965105,0.325855,0.949105,0.326082,0.948938,0.349082,0.930938,0.371166,0.912870,0.371448,0.912621,0.392448,0.892621,0.392621,0.892448,0.412621,0.871448,0.412870,0.871166,0.430938,0.849082,0.448938,0.826082,0.449105,0.825855,0.465105,0.802855,0.465287,0.802572,0.480287,0.777572,0.480363,0.777443,0.494363,0.752443,0.494540,0.752095,
0.506540,0.726095,0.506630,0.725886,0.517630,0.698886,0.517689,0.698737,0.527689,0.671737,0.527808,0.671374,0.535808,0.643374,0.535851,0.643213,0.542851,0.615213,0.542922,0.614879,0.547922,0.586879,0.547953,0.586683,0.551953,0.557683,0.551987,0.557356,0.553987,0.529356,0.553997,0.529172,0.554997,0.500172,0.555000,0.500000,0.555000,-0.500000,0.554997,-0.500172,
0.553997,-0.529172,0.553987,-0.529356,0.551987,-0.557356,0.551953,-0.557683,0.547953,-0.586683,0.547922,-0.586879,0.542922,-0.614879,0.542851,-0.615213,0.535851,-0.643213,0.535808,-0.643374,0.527808,-0.671374,0.527689,-0.671737,0.517689,-0.698737,0.517630,-0.698886,0.506630,-0.725886,0.506540,-0.726095,0.494540,-0.752095,0.494363,-0.752443,0.480363,-0.777443,0.480287,-0.777572,
0.465287,-0.802572,0.465105,-0.802855,0.449105,-0.825855,0.448938,-0.826082,0.430938,-0.849082,0.412870,-0.871166,0.412621,-0.871448,0.392621,-0.892448,0.392448,-0.892621,0.371448,-0.912621,0.371166,-0.912870,0.349082,-0.930938,0.326082,-0.948938,0.325855,-0.949105,0.302855,-0.965105,0.302572,-0.965287,0.277572,-0.980287,0.277443,-0.980363,0.252443,-0.994363,0.252095,-0.994540,
0.226095,-1.006540,0.225886,-1.006630,0.198886,-1.017630,0.198737,-1.017689,0.171737,-1.027689,0.171374,-1.027808,0.143374,-1.035808,0.143213,-1.035851,0.115213,-1.042851,0.114879,-1.042922,0.086879,-1.047922,0.086683,-1.047953,0.057683,-1.051953,0.057356,-1.051987,0.029356,-1.053987,0.029172,-1.053997,0.000172,-1.054997,-0.000172,-1.054997,-0.029172,-1.053997,-0.029356,-1.053987,
-0.057356,-1.051987,-0.057683,-1.051953,-0.086683,-1.047953,-0.086879,-1.047922,-0.114879,-1.042922,-0.115213,-1.042851,-0.143213,-1.035851,-0.143374,-1.035808,-0.171374,-1.027808,-0.171737,-1.027689,-0.198737,-1.017689,-0.198886,-1.017630,-0.225886,-1.006630,-0.226095,-1.006540,-0.252095,-0.994540,-0.252443,-0.994363,-0.277443,-0.980363,-0.277572,-0.980287,-0.302572,-0.965287,-0.302855,-0.965105,
-0.325855,-0.949105,-0.326082,-0.948938,-0.349082,-0.930938,-0.371166,-0.912870,-0.371448,-0.912621,-0.392448,-0.892621,-0.392621,-0.892448,-0.412621,-0.871448,-0.412870,-0.871166,-0.430938,-0.849082,-0.448938,-0.826082,-0.449105,-0.825855,-0.465105,-0.802855,-0.465287,-0.802572,-0.480287,-0.777572,-0.480363,-0.777443,-0.494363,-0.752443,-0.494540,-0.752095,-0.506540,-0.726095,-0.506630,-0.725886,
-0.517630,-0.698886,-0.517689,-0.698737,-0.527689,-0.671737,-0.527808,-0.671374,-0.535808,-0.643374,-0.535851,-0.643213,-0.542851,-0.615213,-0.542922,-0.614879,-0.547922,-0.586879,-0.547953,-0.586683,-0.551953,-0.557683,-0.551987,-0.557356,-0.553987,-0.529356,-0.553997,-0.529172,-0.554997,-0.500172,-0.555000,-0.500000,-0.555000,0.500000,-0.554997,0.500172,-0.553997,0.529172,-0.553987,0.529356,
-0.551987,0.557356,-0.551953,0.557683,-0.547953,0.586683,-0.547922,0.586879,-0.542922,0.614879,-0.542851,0.615213,-0.535851,0.643213,-0.535808,0.643374,-0.527808,0.671374,-0.527689,0.671737,-0.517689,0.698737,-0.517630,0.698886,-0.506630,0.725886,-0.506540,0.726095,-0.494540,0.752095,-0.494363,0.752443,-0.480363,0.777443,-0.480287,0.777572,-0.465287,0.802572,-0.465105,0.802855,
-0.449105,0.825855,-0.448938,0.826082,-0.430938,0.849082,-0.412870,0.871166,-0.412621,0.871448,-0.392621,0.892448,-0.392448,0.892621,-0.371448,0.912621,-0.371166,0.912870,-0.349082,0.930938,-0.326082,0.948938,-0.325855,0.949105,-0.302855,0.965105,-0.302572,0.965287,-0.277572,0.980287,-0.277443,0.980363,-0.252443,0.994363,-0.252095,0.994540,-0.226095,1.006540,-0.225886,1.006630,
-0.198886,1.017630,-0.198737,1.017689,-0.171737,1.027689,-0.171374,1.027808,-0.143374,1.035808,-0.143213,1.035851,-0.115213,1.042851,-0.114879,1.042922,-0.086879,1.047922,-0.086683,1.047953,-0.057683,1.051953,-0.057356,1.051987,-0.029356,1.053987,-0.029172,1.053997,-0.000172,1.054997,0.000172,1.054997,0.029172,1.053997,0.029172,1.053997,$1*%
G04 Aperture macros list end*
%TA.AperFunction,SMDPad,CuDef*%
%ADD10RoundRect,0.200000X0.200000X0.275000X-0.200000X0.275000X-0.200000X-0.275000X0.200000X-0.275000X0*%
%TD*%
%TA.AperFunction,SMDPad,CuDef*%
%ADD11RoundRect,0.218750X-0.218750X-0.256250X0.218750X-0.256250X0.218750X0.256250X-0.218750X0.256250X0*%
%TD*%
%TA.AperFunction,SMDPad,CuDef*%
%ADD12RoundRect,0.200000X-0.275000X0.200000X-0.275000X-0.200000X0.275000X-0.200000X0.275000X0.200000X0*%
%TD*%
%TA.AperFunction,SMDPad,CuDef*%
%ADD13C,1.000000*%
%TD*%
%TA.AperFunction,SMDPad,CuDef*%
%ADD14RoundRect,0.200000X0.275000X-0.200000X0.275000X0.200000X-0.275000X0.200000X-0.275000X-0.200000X0*%
%TD*%
%TA.AperFunction,SMDPad,CuDef*%
%ADD15R,0.952500X0.558800*%
%TD*%
%TA.AperFunction,SMDPad,CuDef*%
%ADD16RoundRect,0.225000X0.250000X-0.225000X0.250000X0.225000X-0.250000X0.225000X-0.250000X-0.225000X0*%
%TD*%
%TA.AperFunction,SMDPad,CuDef*%
%ADD17R,0.889000X0.990600*%
%TD*%
%TA.AperFunction,SMDPad,CuDef*%
%ADD18R,1.701800X0.558800*%
%TD*%
%TA.AperFunction,SMDPad,CuDef*%
%ADD19R,0.375000X0.350000*%
%TD*%
%TA.AperFunction,SMDPad,CuDef*%
%ADD20R,0.350000X0.375000*%
%TD*%
%TA.AperFunction,SMDPad,CuDef*%
%ADD21R,2.000000X4.416666*%
%TD*%
%TA.AperFunction,SMDPad,CuDef*%
%ADD22Outline4P,0.000000X-0.500000X0.000000X-0.500000X2.650000X0.500000X-2.650000X0.500000X270.000000*%
%TD*%
%TA.AperFunction,SMDPad,CuDef*%
%ADD23Outline4P,-2.650000X-0.500000X2.650000X-0.500000X0.000000X0.500000X0.000000X0.500000X270.000000*%
%TD*%
%TA.AperFunction,SMDPad,CuDef*%
%ADD24Outline4P,-1.325000X0.000000X1.325000X-1.000000X1.325000X1.000000X-1.325000X0.000000X270.000000*%
%TD*%
%TA.AperFunction,SMDPad,CuDef*%
%ADD25R,2.000000X2.650000*%
%TD*%
%TA.AperFunction,SMDPad,CuDef*%
%ADD26RoundRect,0.075000X-0.075000X0.650000X-0.075000X-0.650000X0.075000X-0.650000X0.075000X0.650000X0*%
%TD*%
%TA.AperFunction,SMDPad,CuDef*%
%ADD27RoundRect,0.225000X-0.225000X-0.250000X0.225000X-0.250000X0.225000X0.250000X-0.225000X0.250000X0*%
%TD*%
%TA.AperFunction,SMDPad,CuDef*%
%ADD28RoundRect,0.225000X-0.250000X0.225000X-0.250000X-0.225000X0.250000X-0.225000X0.250000X0.225000X0*%
%TD*%
%TA.AperFunction,SMDPad,CuDef*%
%ADD29R,0.300000X0.700000*%
%TD*%
%TA.AperFunction,SMDPad,CuDef*%
%ADD30R,1.000000X0.700000*%
%TD*%
%TA.AperFunction,ComponentPad*%
%ADD31O,1.100000X2.600000*%
%TD*%
%TA.AperFunction,ComponentPad*%
%ADD32FreePoly0,0.000000*%
%TD*%
%TA.AperFunction,SMDPad,CuDef*%
%ADD33RoundRect,0.200000X-0.200000X-0.275000X0.200000X-0.275000X0.200000X0.275000X-0.200000X0.275000X0*%
%TD*%
%TA.AperFunction,ComponentPad*%
%ADD34R,1.498600X1.498600*%
%TD*%
%TA.AperFunction,ComponentPad*%
%ADD35C,1.498600*%
%TD*%
%TA.AperFunction,ComponentPad*%
%ADD36C,1.530000*%
%TD*%
%TA.AperFunction,SMDPad,CuDef*%
%ADD37RoundRect,0.218750X-0.256250X0.218750X-0.256250X-0.218750X0.256250X-0.218750X0.256250X0.218750X0*%
%TD*%
%TA.AperFunction,SMDPad,CuDef*%
%ADD38R,0.558800X0.952500*%
%TD*%
%TA.AperFunction,SMDPad,CuDef*%
%ADD39RoundRect,0.225000X0.225000X0.250000X-0.225000X0.250000X-0.225000X-0.250000X0.225000X-0.250000X0*%
%TD*%
%TA.AperFunction,SMDPad,CuDef*%
%ADD40RoundRect,0.075000X-0.700000X-0.075000X0.700000X-0.075000X0.700000X0.075000X-0.700000X0.075000X0*%
%TD*%
%TA.AperFunction,SMDPad,CuDef*%
%ADD41RoundRect,0.075000X-0.075000X-0.700000X0.075000X-0.700000X0.075000X0.700000X-0.075000X0.700000X0*%
%TD*%
%TA.AperFunction,SMDPad,CuDef*%
%ADD42RoundRect,0.150000X-0.512500X-0.150000X0.512500X-0.150000X0.512500X0.150000X-0.512500X0.150000X0*%
%TD*%
%TA.AperFunction,ConnectorPad*%
%ADD43C,0.787400*%
%TD*%
%TA.AperFunction,SMDPad,CuDef*%
%ADD44RoundRect,0.150000X0.512500X0.150000X-0.512500X0.150000X-0.512500X-0.150000X0.512500X-0.150000X0*%
%TD*%
%TA.AperFunction,SMDPad,CuDef*%
%ADD45RoundRect,0.250000X-1.000000X-0.650000X1.000000X-0.650000X1.000000X0.650000X-1.000000X0.650000X0*%
%TD*%
%TA.AperFunction,SMDPad,CuDef*%
%ADD46R,1.500000X0.700000*%
%TD*%
%TA.AperFunction,SMDPad,CuDef*%
%ADD47R,0.700000X1.500000*%
%TD*%
%TA.AperFunction,ComponentPad*%
%ADD48RoundRect,0.250000X-0.350000X-0.625000X0.350000X-0.625000X0.350000X0.625000X-0.350000X0.625000X0*%
%TD*%
%TA.AperFunction,ComponentPad*%
%ADD49O,1.200000X1.750000*%
%TD*%
%TA.AperFunction,ViaPad*%
%ADD50C,0.600000*%
%TD*%
%TA.AperFunction,Conductor*%
%ADD51C,0.400000*%
%TD*%
%TA.AperFunction,Conductor*%
%ADD52C,0.200000*%
%TD*%
%TA.AperFunction,Conductor*%
%ADD53C,0.150000*%
%TD*%
G04 APERTURE END LIST*
D10*
%TO.P,R11,1*%
%TO.N,Net-(D5-A)*%
X183825000Y-63400000D03*
%TO.P,R11,2*%
%TO.N,+3.3V*%
X182175000Y-63400000D03*
%TD*%
D11*
%TO.P,D5,1,K*%
%TO.N,BATT_LOW*%
X182212500Y-61600000D03*
%TO.P,D5,2,A*%
%TO.N,Net-(D5-A)*%
X183787500Y-61600000D03*
%TD*%
D10*
%TO.P,R12,1*%
%TO.N,Net-(D6-A)*%
X188012500Y-63400000D03*
%TO.P,R12,2*%
%TO.N,+3.3V*%
X186362500Y-63400000D03*
%TD*%
D12*
%TO.P,R3,1*%
%TO.N,+5V*%
X174400000Y-126775000D03*
%TO.P,R3,2*%
%TO.N,Net-(D1-A)*%
X174400000Y-128425000D03*
%TD*%
D10*
%TO.P,R17,1*%
%TO.N,Net-(TS1-TSC3)*%
X183050000Y-85200000D03*
%TO.P,R17,2*%
%TO.N,TSC_3*%
X181400000Y-85200000D03*
%TD*%
D13*
%TO.P,TP5,1,1*%
%TO.N,ADC1_IN2*%
X182200000Y-99400000D03*
%TD*%
D14*
%TO.P,R9,1*%
%TO.N,+3.3V*%
X162400000Y-96825000D03*
%TO.P,R9,2*%
%TO.N,I2C2_SCL*%
X162400000Y-95175000D03*
%TD*%
D15*
%TO.P,U9,1,1*%
%TO.N,MODE*%
X184618650Y-102145800D03*
%TO.P,U9,2,2*%
X190981350Y-102145800D03*
%TO.P,U9,3,3*%
%TO.N,GND*%
X184618650Y-105854200D03*
%TO.P,U9,4,4*%
X190981350Y-105854200D03*
%TD*%
D16*
%TO.P,C6,1*%
%TO.N,/MCU/BLE_RST*%
X174400000Y-72975000D03*
%TO.P,C6,2*%
%TO.N,GND*%
X174400000Y-71425000D03*
%TD*%
D17*
%TO.P,SW2,1,1*%
%TO.N,GND*%
X168614498Y-124806399D03*
%TO.P,SW2,2,2*%
%TO.N,/MCU/NRST*%
X168614498Y-126406401D03*
%TO.P,SW2,3,3*%
X164514502Y-126406401D03*
%TO.P,SW2,4,4*%
%TO.N,GND*%
X164514502Y-124806399D03*
D18*
%TO.P,SW2,5,5*%
X166564500Y-124181460D03*
%TD*%
D19*
%TO.P,A1,1,VPP*%
%TO.N,GND*%
X178037500Y-93412500D03*
%TO.P,A1,2,SDA*%
%TO.N,I2C2_SDA*%
X178037500Y-93912500D03*
%TO.P,A1,3,VDD*%
%TO.N,+3.3V*%
X178037500Y-94412500D03*
%TO.P,A1,4,NC*%
%TO.N,unconnected-(A1-NC-Pad4)*%
X178037500Y-94912500D03*
D20*
%TO.P,A1,5,INTN*%
%TO.N,/MCU/ACC_INT*%
X178550000Y-94925000D03*
%TO.P,A1,6,NC*%
%TO.N,unconnected-(A1-NC-Pad6)*%
X179050000Y-94925000D03*
D19*
%TO.P,A1,7,NC*%
%TO.N,unconnected-(A1-NC-Pad7)*%
X179562500Y-94912500D03*
%TO.P,A1,8,NC*%
%TO.N,unconnected-(A1-NC-Pad8)*%
X179562500Y-94412500D03*
%TO.P,A1,9,GND*%
%TO.N,GND*%
X179562500Y-93912500D03*
%TO.P,A1,10,NC*%
%TO.N,unconnected-(A1-NC-Pad10)*%
X179562500Y-93412500D03*
D20*
%TO.P,A1,11,NC*%
%TO.N,unconnected-(A1-NC-Pad11)*%
X179050000Y-93400000D03*
%TO.P,A1,12,SCL*%
%TO.N,I2C2_SCL*%
X178550000Y-93400000D03*
%TD*%
D10*
%TO.P,R1,1*%
%TO.N,Net-(J1-CC1)*%
X174650000Y-112200000D03*
%TO.P,R1,2*%
%TO.N,GND*%
X173000000Y-112200000D03*
%TD*%
D21*
%TO.P,TS1,1,TSC1*%
%TO.N,Net-(TS1-TSC1)*%
X189600000Y-68716667D03*
X187600000Y-68716667D03*
X185600000Y-68716667D03*
D22*
X190100000Y-70925000D03*
D23*
X189100000Y-70925000D03*
D22*
X188100000Y-70925000D03*
D23*
X187100000Y-70925000D03*
D22*
X186100000Y-70925000D03*
D23*
X185100000Y-70925000D03*
D24*
%TO.P,TS1,2,TSC2*%
%TO.N,Net-(TS1-TSC2)*%
X189600000Y-72950000D03*
X187600000Y-72950000D03*
X185600000Y-72950000D03*
D25*
X189600000Y-75600000D03*
X187600000Y-75600000D03*
X185600000Y-75600000D03*
D22*
X190100000Y-76925000D03*
D23*
X189100000Y-76925000D03*
D22*
X188100000Y-76925000D03*
D23*
X187100000Y-76925000D03*
D22*
X186100000Y-76925000D03*
D23*
X185100000Y-76925000D03*
D24*
%TO.P,TS1,3,TSC3*%
%TO.N,Net-(TS1-TSC3)*%
X189600000Y-78950000D03*
X187600000Y-78950000D03*
X185600000Y-78950000D03*
D25*
X189600000Y-81600000D03*
X187600000Y-81600000D03*
X185600000Y-81600000D03*
D22*
X190100000Y-82925000D03*
D23*
X189100000Y-82925000D03*
D22*
X188100000Y-82925000D03*
D23*
X187100000Y-82925000D03*
D22*
X186100000Y-82925000D03*
D23*
X185100000Y-82925000D03*
D24*
%TO.P,TS1,4,TSC4*%
%TO.N,Net-(TS1-TSC4)*%
X189600000Y-84950000D03*
X187600000Y-84950000D03*
X185600000Y-84950000D03*
D25*
X189600000Y-87600000D03*
X187600000Y-87600000D03*
X185600000Y-87600000D03*
D22*
X190100000Y-88925000D03*
D23*
X189100000Y-88925000D03*
D22*
X188100000Y-88925000D03*
D23*
X187100000Y-88925000D03*
D22*
X186100000Y-88925000D03*
D23*
X185100000Y-88925000D03*
D24*
%TO.P,TS1,5,TSC5*%
%TO.N,Net-(TS1-TSC5)*%
X189600000Y-90950000D03*
X187600000Y-90950000D03*
X185600000Y-90950000D03*
D21*
X189600000Y-94483333D03*
X187600000Y-94483333D03*
X185600000Y-94483333D03*
%TD*%
D12*
%TO.P,R16,1*%
%TO.N,Net-(TS1-TSC2)*%
X182200000Y-78800000D03*
%TO.P,R16,2*%
%TO.N,TSC_2*%
X182200000Y-80450000D03*
%TD*%
D16*
%TO.P,C18,1*%
%TO.N,+3.3V*%
X181800000Y-94975000D03*
%TO.P,C18,2*%
%TO.N,GND*%
X181800000Y-93425000D03*
%TD*%
D26*
%TO.P,U6,1,REG*%
%TO.N,Net-(U6-REG)*%
X166800000Y-93200000D03*
%TO.P,U6,2,SCL*%
%TO.N,I2C2_SCL*%
X166300000Y-93200000D03*
%TO.P,U6,3,SDA*%
%TO.N,I2C2_SDA*%
X165800000Y-93200000D03*
%TO.P,U6,4,IN/TRIG*%
%TO.N,LRA_TRIG*%
X165300000Y-93200000D03*
%TO.P,U6,5,EN*%
%TO.N,LRA_EN*%
X164800000Y-93200000D03*
%TO.P,U6,6,VDD/NC*%
%TO.N,+BATT*%
X164800000Y-97600000D03*
%TO.P,U6,7,OUT+*%
%TO.N,Net-(U6-OUT+)*%
X165300000Y-97600000D03*
%TO.P,U6,8,GND*%
%TO.N,GND*%
X165800000Y-97600000D03*
%TO.P,U6,9,OUT-*%
%TO.N,Net-(U6-OUT-)*%
X166300000Y-97600000D03*
%TO.P,U6,10,VDD*%
%TO.N,+BATT*%
X166800000Y-97600000D03*
%TD*%
D27*
%TO.P,C8,1*%
%TO.N,GND*%
X165800000Y-78400000D03*
%TO.P,C8,2*%
%TO.N,+3.3V*%
X167350000Y-78400000D03*
%TD*%
D11*
%TO.P,D4,1,K*%
%TO.N,Net-(D4-K)*%
X162812500Y-101400000D03*
%TO.P,D4,2,A*%
%TO.N,Net-(D4-A)*%
X164387500Y-101400000D03*
%TD*%
D13*
%TO.P,TP3,1,1*%
%TO.N,+BATT*%
X193200000Y-123200000D03*
%TD*%
D27*
%TO.P,C17,1*%
%TO.N,ADC1_IN2*%
X166025000Y-88600000D03*
%TO.P,C17,2*%
%TO.N,GND*%
X167575000Y-88600000D03*
%TD*%
D28*
%TO.P,C11,1*%
%TO.N,GND*%
X180000000Y-75425000D03*
%TO.P,C11,2*%
%TO.N,+3.3V*%
X180000000Y-76975000D03*
%TD*%
D10*
%TO.P,R6,1*%
%TO.N,GND*%
X196025000Y-103600000D03*
%TO.P,R6,2*%
%TO.N,Net-(U3-BOOT0)*%
X194375000Y-103600000D03*
%TD*%
%TO.P,R8,1*%
%TO.N,Net-(D4-A)*%
X164425000Y-103200000D03*
%TO.P,R8,2*%
%TO.N,+3.3V*%
X162775000Y-103200000D03*
%TD*%
D14*
%TO.P,R10,1*%
%TO.N,+3.3V*%
X161800000Y-92225000D03*
%TO.P,R10,2*%
%TO.N,I2C2_SDA*%
X161800000Y-90575000D03*
%TD*%
D13*
%TO.P,TP4,1,1*%
%TO.N,Net-(D1-K)*%
X189400000Y-123800000D03*
%TD*%
D29*
%TO.P,J1,A1,GND_A*%
%TO.N,GND*%
X177750000Y-121777500D03*
%TO.P,J1,A2,SSTXP1*%
%TO.N,unconnected-(J1-SSTXP1-PadA2)*%
X178250000Y-121777500D03*
%TO.P,J1,A3,SSTXN1*%
%TO.N,unconnected-(J1-SSTXN1-PadA3)*%
X178750000Y-121777500D03*
%TO.P,J1,A4,VBUS_A*%
%TO.N,+5V*%
X179250000Y-121777500D03*
%TO.P,J1,A5,CC1*%
%TO.N,Net-(J1-CC1)*%
X179750000Y-121777500D03*
%TO.P,J1,A6,DP1*%
%TO.N,unconnected-(J1-DP1-PadA6)*%
X180250000Y-121777500D03*
%TO.P,J1,A7,DN1*%
%TO.N,unconnected-(J1-DN1-PadA7)*%
X181250000Y-121777500D03*
%TO.P,J1,A8,SBU1*%
%TO.N,unconnected-(J1-SBU1-PadA8)*%
X181750000Y-121777500D03*
%TO.P,J1,A9,VBUS_A__1*%
%TO.N,+5V*%
X182250000Y-121777500D03*
%TO.P,J1,A10,SSRXN2*%
%TO.N,unconnected-(J1-SSRXN2-PadA10)*%
X182750000Y-121777500D03*
%TO.P,J1,A11,SSRXP2*%
%TO.N,unconnected-(J1-SSRXP2-PadA11)*%
X183250000Y-121777500D03*
%TO.P,J1,A12,GND_A__1*%
%TO.N,GND*%
X183750000Y-121777500D03*
D30*
%TO.P,J1,B1,GND_B*%
X183850000Y-123077500D03*
D29*
%TO.P,J1,B2,SSTXP2*%
%TO.N,unconnected-(J1-SSTXP2-PadB2)*%
X183000000Y-123077500D03*
%TO.P,J1,B3,SSTXN2*%
%TO.N,unconnected-(J1-SSTXN2-PadB3)*%
X182500000Y-123077500D03*
%TO.P,J1,B4,VBUS_B*%
%TO.N,+5V*%
X182000000Y-123077500D03*
%TO.P,J1,B5,CC2*%
%TO.N,Net-(J1-CC2)*%
X181500000Y-123077500D03*
%TO.P,J1,B6,DP2*%
%TO.N,unconnected-(J1-DP2-PadB6)*%
X181000000Y-123077500D03*
%TO.P,J1,B7,DN2*%
%TO.N,unconnected-(J1-DN2-PadB7)*%
X180500000Y-123077500D03*
%TO.P,J1,B8,SBU2*%
%TO.N,unconnected-(J1-SBU2-PadB8)*%
X180000000Y-123077500D03*
%TO.P,J1,B9,VBUS_B__1*%
%TO.N,+5V*%
X179500000Y-123077500D03*
%TO.P,J1,B10,SSRXN1*%
%TO.N,unconnected-(J1-SSRXN1-PadB10)*%
X179000000Y-123077500D03*
%TO.P,J1,B11,SSRXP1*%
%TO.N,unconnected-(J1-SSRXP1-PadB11)*%
X178500000Y-123077500D03*
D30*
%TO.P,J1,B12,GND_B__1*%
%TO.N,GND*%
X177650000Y-123077500D03*
D31*
%TO.P,J1,S1,SHIELD*%
X176430000Y-127547500D03*
%TO.P,J1,S2,SHIELD__1*%
X185070000Y-127547500D03*
D32*
%TO.P,J1,S3,SHIELD__2*%
X176430000Y-122187500D03*
%TO.P,J1,S4,SHIELD__3*%
X185070000Y-122187500D03*
%TD*%
D27*
%TO.P,C21,1*%
%TO.N,Net-(U3-PB13)*%
X181400000Y-87400000D03*
%TO.P,C21,2*%
%TO.N,GND*%
X182950000Y-87400000D03*
%TD*%
D28*
%TO.P,C23,1*%
%TO.N,Net-(U3-PA6)*%
X173200000Y-92850000D03*
%TO.P,C23,2*%
%TO.N,GND*%
X173200000Y-94400000D03*
%TD*%
D16*
%TO.P,C19,1*%
%TO.N,Net-(U3-PB6)*%
X173000000Y-75975000D03*
%TO.P,C19,2*%
%TO.N,GND*%
X173000000Y-74425000D03*
%TD*%
D33*
%TO.P,R2,1*%
%TO.N,GND*%
X172975000Y-110200000D03*
%TO.P,R2,2*%
%TO.N,Net-(J1-CC2)*%
X174625000Y-110200000D03*
%TD*%
D27*
%TO.P,C20,1*%
%TO.N,Net-(U3-PA9)*%
X181425000Y-83400000D03*
%TO.P,C20,2*%
%TO.N,GND*%
X182975000Y-83400000D03*
%TD*%
%TO.P,C3,1*%
%TO.N,+BATT*%
X187025000Y-112400000D03*
%TO.P,C3,2*%
%TO.N,GND*%
X188575000Y-112400000D03*
%TD*%
D28*
%TO.P,C12,1*%
%TO.N,GND*%
X168800000Y-76025000D03*
%TO.P,C12,2*%
%TO.N,+3.3V*%
X168800000Y-77575000D03*
%TD*%
%TO.P,C4,1*%
%TO.N,+3.3V*%
X192200000Y-114025000D03*
%TO.P,C4,2*%
%TO.N,GND*%
X192200000Y-115575000D03*
%TD*%
D14*
%TO.P,R13,1*%
%TO.N,+BATT*%
X179926374Y-100879745D03*
%TO.P,R13,2*%
%TO.N,ADC1_IN2*%
X179926374Y-99229745D03*
%TD*%
D10*
%TO.P,R19,1*%
%TO.N,Net-(TS1-TSC5)*%
X178450000Y-97400000D03*
%TO.P,R19,2*%
%TO.N,TSC_5*%
X176800000Y-97400000D03*
%TD*%
D34*
%TO.P,U5,1,VOUT*%
%TO.N,/MCU/BLE_RST*%
X177330000Y-73140000D03*
D35*
%TO.P,U5,2,VDD*%
%TO.N,+3.3V*%
X178600000Y-70600000D03*
%TO.P,U5,3,VSS*%
%TO.N,GND*%
X179870000Y-73140000D03*
%TD*%
D36*
%TO.P,TP12,TP*%
%TO.N,/MCU/BLE_RST*%
X177400000Y-65800000D03*
%TD*%
D13*
%TO.P,TP15,1,1*%
%TO.N,I2C2_SCL*%
X166800000Y-90400000D03*
%TD*%
D16*
%TO.P,C9,1*%
%TO.N,GND*%
X170600000Y-93375000D03*
%TO.P,C9,2*%
%TO.N,+3.3V*%
X170600000Y-91825000D03*
%TD*%
D37*
%TO.P,D2,1,K*%
%TO.N,GND*%
X189200000Y-126800000D03*
%TO.P,D2,2,A*%
%TO.N,Net-(D2-A)*%
X189200000Y-128375000D03*
%TD*%
D15*
%TO.P,U8,1,1*%
%TO.N,AUTO_DIM*%
X169018650Y-102145800D03*
%TO.P,U8,2,2*%
X175381350Y-102145800D03*
%TO.P,U8,3,3*%
%TO.N,GND*%
X169018650Y-105854200D03*
%TO.P,U8,4,4*%
X175381350Y-105854200D03*
%TD*%
D27*
%TO.P,C1,1*%
%TO.N,GND*%
X174425000Y-114800000D03*
%TO.P,C1,2*%
%TO.N,+5V*%
X175975000Y-114800000D03*
%TD*%
D36*
%TO.P,TP8,TP*%
%TO.N,/MCU/UART5_TX*%
X162800000Y-80400000D03*
%TD*%
D38*
%TO.P,U7,1,1*%
%TO.N,POWER*%
X193345800Y-68781350D03*
%TO.P,U7,2,2*%
X193345800Y-62418650D03*
%TO.P,U7,3,3*%
%TO.N,GND*%
X197054200Y-68781350D03*
%TO.P,U7,4,4*%
X197054200Y-62418650D03*
%TD*%
D39*
%TO.P,C16,1*%
%TO.N,GND*%
X170375000Y-97200000D03*
%TO.P,C16,2*%
%TO.N,+BATT*%
X168825000Y-97200000D03*
%TD*%
D36*
%TO.P,TP7,TP*%
%TO.N,/MCU/UART5_RX*%
X162800000Y-77000000D03*
%TD*%
D12*
%TO.P,R18,1*%
%TO.N,Net-(TS1-TSC4)*%
X182600000Y-90000000D03*
%TO.P,R18,2*%
%TO.N,TSC_4*%
X182600000Y-91650000D03*
%TD*%
D36*
%TO.P,TP6,TP*%
%TO.N,/MCU/BLE_MODE*%
X178400000Y-62400000D03*
%TD*%
D40*
%TO.P,U3,1,VBAT*%
%TO.N,+3.3V*%
X168125000Y-79850000D03*
%TO.P,U3,2,PC13*%
%TO.N,unconnected-(U3-PC13-Pad2)*%
X168125000Y-80350000D03*
%TO.P,U3,3,PC14*%
%TO.N,unconnected-(U3-PC14-Pad3)*%
X168125000Y-80850000D03*
%TO.P,U3,4,PC15*%
%TO.N,/MCU/BLE_UART_RX_IND*%
X168125000Y-81350000D03*
%TO.P,U3,5,PF0*%
%TO.N,I2C2_SDA*%
X168125000Y-81850000D03*
%TO.P,U3,6,PF1*%
%TO.N,I2C2_SCL*%
X168125000Y-82350000D03*
%TO.P,U3,7,NRST*%
%TO.N,/MCU/NRST*%
X168125000Y-82850000D03*
%TO.P,U3,8,PC0*%
%TO.N,unconnected-(U3-PC0-Pad8)*%
X168125000Y-83350000D03*
%TO.P,U3,9,PC1*%
%TO.N,unconnected-(U3-PC1-Pad9)*%
X168125000Y-83850000D03*
%TO.P,U3,10,PC2*%
%TO.N,unconnected-(U3-PC2-Pad10)*%
X168125000Y-84350000D03*
%TO.P,U3,11,PC3*%
%TO.N,unconnected-(U3-PC3-Pad11)*%
X168125000Y-84850000D03*
%TO.P,U3,12,VSSA*%
%TO.N,GND*%
X168125000Y-85350000D03*
%TO.P,U3,13,VDDA*%
%TO.N,+3.3V*%
X168125000Y-85850000D03*
%TO.P,U3,14,PA0*%
%TO.N,unconnected-(U3-PA0-Pad14)*%
X168125000Y-86350000D03*
%TO.P,U3,15,PA1*%
%TO.N,ADC1_IN2*%
X168125000Y-86850000D03*
%TO.P,U3,16,PA2*%
%TO.N,unconnected-(U3-PA2-Pad16)*%
X168125000Y-87350000D03*
D41*
%TO.P,U3,17,PA3*%
%TO.N,LRA_TRIG*%
X170050000Y-89275000D03*
%TO.P,U3,18,PF4*%
%TO.N,LRA_EN*%
X170550000Y-89275000D03*
%TO.P,U3,19,VDD*%
%TO.N,+3.3V*%
X171050000Y-89275000D03*
%TO.P,U3,20,PA4*%
%TO.N,unconnected-(U3-PA4-Pad20)*%
X171550000Y-89275000D03*
%TO.P,U3,21,PA5*%
%TO.N,unconnected-(U3-PA5-Pad21)*%
X172050000Y-89275000D03*
%TO.P,U3,22,PA6*%
%TO.N,Net-(U3-PA6)*%
X172550000Y-89275000D03*
%TO.P,U3,23,PA7*%
%TO.N,TSC_5*%
X173050000Y-89275000D03*
%TO.P,U3,24,PC4*%
%TO.N,unconnected-(U3-PC4-Pad24)*%
X173550000Y-89275000D03*
%TO.P,U3,25,PC5*%
%TO.N,unconnected-(U3-PC5-Pad25)*%
X174050000Y-89275000D03*
%TO.P,U3,26,PB0*%
%TO.N,/MCU/ACC_INT*%
X174550000Y-89275000D03*
%TO.P,U3,27,PB1*%
%TO.N,Net-(U3-PB1)*%
X175050000Y-89275000D03*
%TO.P,U3,28,PB2*%
%TO.N,TSC_4*%
X175550000Y-89275000D03*
%TO.P,U3,29,PB10*%
%TO.N,unconnected-(U3-PB10-Pad29)*%
X176050000Y-89275000D03*
%TO.P,U3,30,PB11*%
%TO.N,unconnected-(U3-PB11-Pad30)*%
X176550000Y-89275000D03*
%TO.P,U3,31,VSS*%
%TO.N,GND*%
X177050000Y-89275000D03*
%TO.P,U3,32,VDD*%
%TO.N,+3.3V*%
X177550000Y-89275000D03*
D40*
%TO.P,U3,33,PB12*%
%TO.N,unconnected-(U3-PB12-Pad33)*%
X179475000Y-87350000D03*
%TO.P,U3,34,PB13*%
%TO.N,Net-(U3-PB13)*%
X179475000Y-86850000D03*
%TO.P,U3,35,PB14*%
%TO.N,TSC_3*%
X179475000Y-86350000D03*
%TO.P,U3,36,PB15*%
%TO.N,unconnected-(U3-PB15-Pad36)*%
X179475000Y-85850000D03*
%TO.P,U3,37,PC6*%
%TO.N,unconnected-(U3-PC6-Pad37)*%
X179475000Y-85350000D03*
%TO.P,U3,38,PC7*%
%TO.N,AUTO_DIM*%
X179475000Y-84850000D03*
%TO.P,U3,39,PC8*%
%TO.N,POWER*%
X179475000Y-84350000D03*
%TO.P,U3,40,PC9*%
%TO.N,MODE*%
X179475000Y-83850000D03*
%TO.P,U3,41,PA8*%
%TO.N,unconnected-(U3-PA8-Pad41)*%
X179475000Y-83350000D03*
%TO.P,U3,42,PA9*%
%TO.N,Net-(U3-PA9)*%
X179475000Y-82850000D03*
%TO.P,U3,43,PA10*%
%TO.N,TSC_2*%
X179475000Y-82350000D03*
%TO.P,U3,44,PA11*%
%TO.N,BUT_PRESS*%
X179475000Y-81850000D03*
%TO.P,U3,45,PA12*%
%TO.N,BATT_LOW*%
X179475000Y-81350000D03*
%TO.P,U3,46,PA13*%
%TO.N,/MCU/SWDIO*%
X179475000Y-80850000D03*
%TO.P,U3,47,VSS*%
%TO.N,GND*%
X179475000Y-80350000D03*
%TO.P,U3,48,VDD*%
%TO.N,+3.3V*%
X179475000Y-79850000D03*
D41*
%TO.P,U3,49,PA14*%
%TO.N,/MCU/SWCLK*%
X177550000Y-77925000D03*
%TO.P,U3,50,PA15*%
%TO.N,unconnected-(U3-PA15-Pad50)*%
X177050000Y-77925000D03*
%TO.P,U3,51,PC10*%
%TO.N,/MCU/BLE_MODE*%
X176550000Y-77925000D03*
%TO.P,U3,52,PC11*%
%TO.N,/MCU/BLE_STATUS1*%
X176050000Y-77925000D03*
%TO.P,U3,53,PC12*%
%TO.N,/MCU/UART5_TX*%
X175550000Y-77925000D03*
%TO.P,U3,54,PD2*%
%TO.N,/MCU/UART5_RX*%
X175050000Y-77925000D03*
%TO.P,U3,55,PB3*%
%TO.N,/MCU/SWO*%
X174550000Y-77925000D03*
%TO.P,U3,56,PB4*%
%TO.N,TSC_1*%
X174050000Y-77925000D03*
%TO.P,U3,57,PB5*%
%TO.N,unconnected-(U3-PB5-Pad57)*%
X173550000Y-77925000D03*
%TO.P,U3,58,PB6*%
%TO.N,Net-(U3-PB6)*%
X173050000Y-77925000D03*
%TO.P,U3,59,PB7*%
%TO.N,unconnected-(U3-PB7-Pad59)*%
X172550000Y-77925000D03*
%TO.P,U3,60,BOOT0*%
%TO.N,Net-(U3-BOOT0)*%
X172050000Y-77925000D03*
%TO.P,U3,61,PB8*%
%TO.N,/MCU/BLE_RST*%
X171550000Y-77925000D03*
%TO.P,U3,62,PB9*%
%TO.N,/MCU/BLE_STATUS2*%
X171050000Y-77925000D03*
%TO.P,U3,63,VSS*%
%TO.N,GND*%
X170550000Y-77925000D03*
%TO.P,U3,64,VDD*%
%TO.N,+3.3V*%
X170050000Y-77925000D03*
%TD*%
D37*
%TO.P,D1,1,K*%
%TO.N,Net-(D1-K)*%
X172400000Y-126812500D03*
%TO.P,D1,2,A*%
%TO.N,Net-(D1-A)*%
X172400000Y-128387500D03*
%TD*%
D12*
%TO.P,R14,1*%
%TO.N,ADC1_IN2*%
X177926374Y-99229745D03*
%TO.P,R14,2*%
%TO.N,GND*%
X177926374Y-100879745D03*
%TD*%
D16*
%TO.P,C13,1*%
%TO.N,+3.3V*%
X166000000Y-85775000D03*
%TO.P,C13,2*%
%TO.N,GND*%
X166000000Y-84225000D03*
%TD*%
D42*
%TO.P,U2,1,IN*%
%TO.N,+BATT*%
X187125000Y-114000000D03*
%TO.P,U2,2,GND*%
%TO.N,GND*%
X187125000Y-114950000D03*
%TO.P,U2,3,EN*%
%TO.N,+BATT*%
X187125000Y-115900000D03*
%TO.P,U2,4,NC*%
%TO.N,unconnected-(U2-NC-Pad4)*%
X189400000Y-115900000D03*
%TO.P,U2,5,OUT*%
%TO.N,+3.3V*%
X189400000Y-114000000D03*
%TD*%
D12*
%TO.P,R15,1*%
%TO.N,Net-(TS1-TSC1)*%
X182600000Y-71160000D03*
%TO.P,R15,2*%
%TO.N,TSC_1*%
X182600000Y-72810000D03*
%TD*%
D14*
%TO.P,R4,1*%
%TO.N,Net-(U1-PROG)*%
X180800000Y-111825000D03*
%TO.P,R4,2*%
%TO.N,GND*%
X180800000Y-110175000D03*
%TD*%
D12*
%TO.P,R7,1*%
%TO.N,+3.3V*%
X180200000Y-66575000D03*
%TO.P,R7,2*%
%TO.N,/MCU/BLE_RST*%
X180200000Y-68225000D03*
%TD*%
D16*
%TO.P,C15,1*%
%TO.N,GND*%
X168800000Y-94575000D03*
%TO.P,C15,2*%
%TO.N,Net-(U6-REG)*%
X168800000Y-93025000D03*
%TD*%
D39*
%TO.P,C5,1*%
%TO.N,GND*%
X172150000Y-123000000D03*
%TO.P,C5,2*%
%TO.N,/MCU/NRST*%
X170600000Y-123000000D03*
%TD*%
D16*
%TO.P,C2,1*%
%TO.N,GND*%
X182200000Y-115575000D03*
%TO.P,C2,2*%
%TO.N,+BATT*%
X182200000Y-114025000D03*
%TD*%
D28*
%TO.P,C22,1*%
%TO.N,Net-(U3-PB1)*%
X173200000Y-95825000D03*
%TO.P,C22,2*%
%TO.N,GND*%
X173200000Y-97375000D03*
%TD*%
D43*
%TO.P,J2,1*%
%TO.N,+3.3V*%
X167019000Y-116550000D03*
%TO.P,J2,2*%
%TO.N,/MCU/SWDIO*%
X167019000Y-115280000D03*
%TO.P,J2,3*%
%TO.N,GND*%
X167019000Y-114010000D03*
%TO.P,J2,4*%
%TO.N,/MCU/SWCLK*%
X167019000Y-112740000D03*
%TO.P,J2,5*%
%TO.N,GND*%
X167019000Y-111470000D03*
%TO.P,J2,6*%
%TO.N,/MCU/SWO*%
X165749000Y-111470000D03*
%TO.P,J2,7*%
%TO.N,unconnected-(J2-Pad7)*%
X165749000Y-112740000D03*
%TO.P,J2,8*%
%TO.N,unconnected-(J2-Pad8)*%
X165749000Y-114010000D03*
%TO.P,J2,9*%
%TO.N,GND*%
X165749000Y-115280000D03*
%TO.P,J2,10*%
%TO.N,/MCU/NRST*%
X165749000Y-116550000D03*
%TD*%
D12*
%TO.P,R5,1*%
%TO.N,Net-(D1-K)*%
X187200000Y-126775000D03*
%TO.P,R5,2*%
%TO.N,Net-(D2-A)*%
X187200000Y-128425000D03*
%TD*%
D13*
%TO.P,TP2,1,1*%
%TO.N,+3.3V*%
X197400000Y-114000000D03*
%TD*%
D16*
%TO.P,C14,1*%
%TO.N,+3.3V*%
X164000000Y-85775000D03*
%TO.P,C14,2*%
%TO.N,GND*%
X164000000Y-84225000D03*
%TD*%
D44*
%TO.P,U1,1,STAT*%
%TO.N,Net-(D1-K)*%
X180275000Y-115900000D03*
%TO.P,U1,2,V_{SS}*%
%TO.N,GND*%
X180275000Y-114950000D03*
%TO.P,U1,3,V_{BAT}*%
%TO.N,+BATT*%
X180275000Y-114000000D03*
%TO.P,U1,4,V_{DD}*%
%TO.N,+5V*%
X178000000Y-114000000D03*
%TO.P,U1,5,PROG*%
%TO.N,Net-(U1-PROG)*%
X178000000Y-115900000D03*
%TD*%
D27*
%TO.P,C7,1*%
%TO.N,+3.3V*%
X173425000Y-67400000D03*
%TO.P,C7,2*%
%TO.N,GND*%
X174975000Y-67400000D03*
%TD*%
D45*
%TO.P,D3,1,A1*%
%TO.N,+5V*%
X180200000Y-118400000D03*
%TO.P,D3,2,A2*%
%TO.N,GND*%
X184200000Y-118400000D03*
%TD*%
D36*
%TO.P,TP9,TP*%
%TO.N,GND*%
X174800000Y-62400000D03*
%TD*%
D11*
%TO.P,D6,1,K*%
%TO.N,BUT_PRESS*%
X186400000Y-61600000D03*
%TO.P,D6,2,A*%
%TO.N,Net-(D6-A)*%
X187975000Y-61600000D03*
%TD*%
D13*
%TO.P,TP1,1,1*%
%TO.N,+5V*%
X173800000Y-117400000D03*
%TD*%
D39*
%TO.P,C10,1*%
%TO.N,GND*%
X180575000Y-89800000D03*
%TO.P,C10,2*%
%TO.N,+3.3V*%
X179025000Y-89800000D03*
%TD*%
D13*
%TO.P,TP16,1,1*%
%TO.N,I2C2_SDA*%
X163600000Y-91600000D03*
%TD*%
D46*
%TO.P,U4,1*%
%TO.N,N/C*%
X162750000Y-65050000D03*
%TO.P,U4,2,GND*%
%TO.N,GND*%
X162750000Y-66250000D03*
%TO.P,U4,3,P1_2*%
%TO.N,unconnected-(U4-P1_2-Pad3)*%
X162750000Y-67450000D03*
%TO.P,U4,4,P1_3*%
%TO.N,unconnected-(U4-P1_3-Pad4)*%
X162750000Y-68650000D03*
%TO.P,U4,5,P1_7*%
%TO.N,unconnected-(U4-P1_7-Pad5)*%
X162750000Y-69850000D03*
D47*
%TO.P,U4,6,P1_6*%
%TO.N,/MCU/BLE_UART_RX_IND*%
X164000000Y-71500000D03*
%TO.P,U4,7,HCI_RXD*%
%TO.N,/MCU/UART5_TX*%
X165200000Y-71500000D03*
%TO.P,U4,8,HCI_TXD*%
%TO.N,/MCU/UART5_RX*%
X166400000Y-71500000D03*
%TO.P,U4,9,P3_6*%
%TO.N,/MCU/BLE_STATUS2*%
X167600000Y-71500000D03*
%TO.P,U4,10,RST_N*%
%TO.N,/MCU/BLE_RST*%
X168800000Y-71500000D03*
%TO.P,U4,11,P0_0*%
%TO.N,/MCU/BLE_STATUS1*%
X170000000Y-71500000D03*
D46*
%TO.P,U4,12,P0_2/LED*%
%TO.N,Net-(D4-K)*%
X171250000Y-69850000D03*
%TO.P,U4,13,GND*%
%TO.N,GND*%
X171250000Y-68650000D03*
%TO.P,U4,14,VBAT*%
%TO.N,+3.3V*%
X171250000Y-67450000D03*
%TO.P,U4,15,P2_7/TX_IND*%
%TO.N,unconnected-(U4-P2_7{slash}TX_IND-Pad15)*%
X171250000Y-66250000D03*
%TO.P,U4,16,P2_0*%
%TO.N,/MCU/BLE_MODE*%
X171250000Y-65050000D03*
%TD*%
D48*
%TO.P,BAT1,1,Pin_1*%
%TO.N,+BATT*%
X193200000Y-125650000D03*
D49*
%TO.P,BAT1,2,Pin_2*%
%TO.N,GND*%
X195200000Y-125650000D03*
%TD*%
D50*
%TO.N,+BATT*%
X175600000Y-98600000D03*
X180000000Y-102000000D03*
%TO.N,+3.3V*%
X186362500Y-64562500D03*
X174200000Y-68800000D03*
X183000000Y-94800000D03*
X176800000Y-94600000D03*
X192200000Y-112600000D03*
X180200000Y-65400000D03*
X178800000Y-77000000D03*
X162400000Y-97800000D03*
X162800000Y-104400000D03*
X167600000Y-76400000D03*
X167350000Y-77250000D03*
X164000000Y-86800000D03*
X170200000Y-116000000D03*
X182175000Y-64575000D03*
X171400000Y-95600000D03*
X161800000Y-93200000D03*
X166000000Y-86800000D03*
X193600000Y-114000000D03*
X180000000Y-95800000D03*
X179000000Y-91000000D03*
X197400000Y-112400000D03*
%TO.N,/MCU/NRST*%
X166600000Y-107200000D03*
X170000000Y-84200000D03*
%TO.N,Net-(D1-K)*%
X172400000Y-125400000D03*
X177600000Y-117400000D03*
%TO.N,Net-(J1-CC2)*%
X175600000Y-110200000D03*
X180800000Y-120400000D03*
%TO.N,Net-(J1-CC1)*%
X175800000Y-112200000D03*
X180000000Y-120200000D03*
%TO.N,/MCU/SWO*%
X167200000Y-108400000D03*
X174200000Y-82400000D03*
%TO.N,/MCU/SWDIO*%
X175800000Y-82800000D03*
X172700000Y-115300000D03*
%TO.N,/MCU/SWCLK*%
X171000000Y-112600000D03*
X175000000Y-82600000D03*
%TO.N,Net-(U3-BOOT0)*%
X172000000Y-80400000D03*
X183800000Y-97200000D03*
%TO.N,Net-(D4-K)*%
X161000000Y-74800000D03*
X173000000Y-71600000D03*
%TO.N,ADC1_IN2*%
X163600000Y-97600000D03*
X164600000Y-88200000D03*
%TO.N,BATT_LOW*%
X181200000Y-69600000D03*
X181200000Y-75400000D03*
%TO.N,/MCU/BLE_MODE*%
X176600000Y-75200000D03*
X173800000Y-65600000D03*
%TO.N,BUT_PRESS*%
X181800000Y-68800000D03*
X182224265Y-74824265D03*
%TO.N,/MCU/BLE_UART_RX_IND*%
X164400000Y-77600000D03*
X164400000Y-73600000D03*
%TO.N,I2C2_SCL*%
X178400000Y-92400000D03*
X177200000Y-87600000D03*
%TO.N,I2C2_SDA*%
X174200000Y-86000000D03*
X174200000Y-91600000D03*
%TO.N,GND*%
X174400000Y-113800000D03*
X168800000Y-95600000D03*
X177800000Y-80200000D03*
X164600000Y-114400000D03*
X166600000Y-123400000D03*
X192600000Y-105800000D03*
X170200000Y-124800000D03*
X170600000Y-96000000D03*
X177000000Y-106400000D03*
X174200000Y-97400000D03*
X167600000Y-75600000D03*
X174800000Y-70600000D03*
X168000000Y-114600000D03*
X176200000Y-67400000D03*
X182000000Y-110200000D03*
X166000000Y-83200000D03*
X177200000Y-92800000D03*
X165000000Y-99600000D03*
X183000000Y-82200000D03*
X193400000Y-115600000D03*
X172800000Y-113600000D03*
X183400000Y-116600000D03*
X169200000Y-109647646D03*
X186200000Y-118400000D03*
X172800000Y-68800000D03*
X189800000Y-112400000D03*
X171400000Y-124200000D03*
X197000000Y-70400000D03*
X171400000Y-94200000D03*
X177600000Y-91000000D03*
X185800000Y-115000000D03*
X161400000Y-73200000D03*
X182800000Y-88600000D03*
X197200000Y-103600000D03*
X168400000Y-89600000D03*
X171825000Y-74425000D03*
X178800000Y-75400000D03*
X164000000Y-83200000D03*
X180575000Y-90975000D03*
X180400000Y-94000000D03*
X165800000Y-77200000D03*
X178000000Y-102400000D03*
X192200000Y-117000000D03*
X172800000Y-109000000D03*
X163400000Y-124800000D03*
X182775000Y-93425000D03*
X189200000Y-125600000D03*
%TO.N,AUTO_DIM*%
X175000000Y-100000000D03*
X176600000Y-86800000D03*
%TO.N,/MCU/UART5_RX*%
X174650000Y-76000000D03*
X166400000Y-73400000D03*
%TO.N,POWER*%
X193200000Y-71000000D03*
X177800000Y-82600000D03*
%TO.N,/MCU/UART5_TX*%
X165800000Y-74475735D03*
X175400000Y-79400000D03*
%TO.N,MODE*%
X177800000Y-84000000D03*
X184553480Y-99953480D03*
%TO.N,Net-(U6-OUT+)*%
X164400000Y-99000000D03*
%TO.N,Net-(U6-OUT-)*%
X166000000Y-99448527D03*
%TO.N,LRA_TRIG*%
X167641051Y-91547017D03*
X165775735Y-94575735D03*
%TO.N,LRA_EN*%
X165765470Y-95386000D03*
X168400000Y-91800000D03*
%TO.N,/MCU/BLE_STATUS1*%
X172762867Y-73001000D03*
X175950000Y-76224265D03*
%TO.N,Net-(U3-PB1)*%
X175600000Y-96200000D03*
X176400000Y-92200000D03*
%TO.N,/MCU/ACC_INT*%
X175600000Y-91800000D03*
X175600000Y-94400000D03*
%TD*%
D51*
%TO.N,+BATT*%
X195200000Y-111600000D02*
X194000000Y-110400000D01*
D52*
X187125000Y-115900000D02*
X187125000Y-117925000D01*
D51*
X183225000Y-114025000D02*
X187400000Y-118200000D01*
X169425000Y-98600000D02*
X175600000Y-98600000D01*
X192400000Y-123200000D02*
X193200000Y-123200000D01*
X188000000Y-110400000D02*
X187025000Y-111375000D01*
X187025000Y-113900000D02*
X187125000Y-114000000D01*
D52*
X187125000Y-117925000D02*
X187400000Y-118200000D01*
X167353000Y-96528000D02*
X168025000Y-97200000D01*
D51*
X180000000Y-104800000D02*
X183800000Y-108600000D01*
X183800000Y-108600000D02*
X186400000Y-108600000D01*
X167000000Y-97800000D02*
X166851000Y-97651000D01*
X168825000Y-97200000D02*
X168225000Y-97800000D01*
X193200000Y-123200000D02*
X193200000Y-125650000D01*
X187025000Y-111375000D02*
X187025000Y-112400000D01*
D52*
X180000000Y-100953371D02*
X180000000Y-102000000D01*
D51*
X168225000Y-97800000D02*
X167000000Y-97800000D01*
X187400000Y-118200000D02*
X192400000Y-123200000D01*
D52*
X187325000Y-114200000D02*
X187125000Y-114000000D01*
D51*
X187025000Y-112400000D02*
X187025000Y-113900000D01*
X193200000Y-118400000D02*
X195200000Y-116400000D01*
D52*
X180300000Y-114025000D02*
X180275000Y-114000000D01*
D51*
X182200000Y-114025000D02*
X180300000Y-114025000D01*
X168825000Y-97200000D02*
X168825000Y-98000000D01*
X168825000Y-98000000D02*
X169425000Y-98600000D01*
X193200000Y-119800000D02*
X193200000Y-118400000D01*
X166851000Y-97651000D02*
X166851000Y-97600000D01*
X188200000Y-110400000D02*
X188000000Y-110400000D01*
D52*
X164800000Y-97600000D02*
X164800000Y-96528000D01*
X168025000Y-97200000D02*
X168825000Y-97200000D01*
X164800000Y-96528000D02*
X167353000Y-96528000D01*
D51*
X195200000Y-116400000D02*
X195200000Y-111600000D01*
X186400000Y-108600000D02*
X188200000Y-110400000D01*
X194000000Y-110400000D02*
X188200000Y-110400000D01*
X180000000Y-102000000D02*
X180000000Y-104800000D01*
D52*
X179926374Y-100879745D02*
X180000000Y-100953371D01*
D51*
X193200000Y-123200000D02*
X193200000Y-119800000D01*
X182200000Y-114025000D02*
X183225000Y-114025000D01*
%TO.N,+5V*%
X176775000Y-114000000D02*
X175975000Y-114800000D01*
D53*
X182000000Y-122577500D02*
X182250000Y-122327500D01*
D52*
X174400000Y-121200000D02*
X174400000Y-125400000D01*
D53*
X179250000Y-122327500D02*
X179250000Y-121777500D01*
D51*
X173800000Y-117400000D02*
X176200000Y-117400000D01*
D52*
X182250000Y-121777500D02*
X182250000Y-120850000D01*
D53*
X179500000Y-123077500D02*
X179500000Y-122577500D01*
D51*
X179250000Y-120650000D02*
X179250000Y-119350000D01*
D53*
X179500000Y-122577500D02*
X179250000Y-122327500D01*
D52*
X174400000Y-126775000D02*
X174400000Y-125400000D01*
D51*
X180200000Y-118800000D02*
X180200000Y-118400000D01*
X175975000Y-114800000D02*
X175975000Y-117175000D01*
D53*
X182250000Y-122327500D02*
X182250000Y-121777500D01*
D51*
X178000000Y-114000000D02*
X176775000Y-114000000D01*
X176700000Y-117900000D02*
X177200000Y-118400000D01*
X179250000Y-119350000D02*
X180200000Y-118400000D01*
X176200000Y-117400000D02*
X176700000Y-117900000D01*
D52*
X177200000Y-118400000D02*
X174400000Y-121200000D01*
D51*
X182250000Y-120850000D02*
X180200000Y-118800000D01*
D52*
X179250000Y-121777500D02*
X179250000Y-120650000D01*
D53*
X182000000Y-123077500D02*
X182000000Y-122577500D01*
D51*
X175975000Y-117175000D02*
X176700000Y-117900000D01*
X177200000Y-118400000D02*
X180200000Y-118400000D01*
D52*
%TO.N,+3.3V*%
X171400000Y-95600000D02*
X171644000Y-95600000D01*
X167350000Y-79075000D02*
X168125000Y-79850000D01*
X180000000Y-79325000D02*
X179475000Y-79850000D01*
X166000000Y-85775000D02*
X166000000Y-86800000D01*
X162775000Y-104375000D02*
X162800000Y-104400000D01*
X173425000Y-68025000D02*
X174200000Y-68800000D01*
X162775000Y-103200000D02*
X162775000Y-104375000D01*
X167350000Y-78400000D02*
X167350000Y-79075000D01*
X168800000Y-77575000D02*
X168775000Y-77575000D01*
X173425000Y-67400000D02*
X173425000Y-68025000D01*
D51*
X192200000Y-114025000D02*
X193575000Y-114025000D01*
X193575000Y-114025000D02*
X193600000Y-114000000D01*
D52*
X164000000Y-85775000D02*
X164000000Y-86800000D01*
X179025000Y-89800000D02*
X179025000Y-90975000D01*
X179025000Y-90975000D02*
X179000000Y-91000000D01*
X173375000Y-67450000D02*
X173425000Y-67400000D01*
X176987500Y-94412500D02*
X176800000Y-94600000D01*
X181800000Y-94975000D02*
X182825000Y-94975000D01*
X162400000Y-96825000D02*
X162400000Y-97800000D01*
X167019000Y-116550000D02*
X167569000Y-116000000D01*
X182212500Y-63362500D02*
X182175000Y-63400000D01*
X172000000Y-92025000D02*
X171800000Y-91825000D01*
X171800000Y-91825000D02*
X170600000Y-91825000D01*
X186362500Y-63400000D02*
X186362500Y-64562500D01*
X166000000Y-85775000D02*
X164000000Y-85775000D01*
X178500000Y-89275000D02*
X179025000Y-89800000D01*
X161800000Y-93200000D02*
X161800000Y-92225000D01*
X182200000Y-64600000D02*
X182175000Y-64575000D01*
D51*
X189400000Y-114000000D02*
X192225000Y-114000000D01*
D52*
X170050000Y-77925000D02*
X169150000Y-77925000D01*
X186400000Y-64600000D02*
X186362500Y-64562500D01*
X178825000Y-76975000D02*
X178800000Y-77000000D01*
X171250000Y-67450000D02*
X173375000Y-67450000D01*
X167569000Y-116000000D02*
X170200000Y-116000000D01*
X167400000Y-77200000D02*
X167350000Y-77250000D01*
X168775000Y-77575000D02*
X167600000Y-76400000D01*
X171644000Y-95600000D02*
X172000000Y-95244000D01*
X180000000Y-95800000D02*
X181000000Y-94800000D01*
X197400000Y-114000000D02*
X197400000Y-112400000D01*
X171050000Y-89275000D02*
X171050000Y-91075000D01*
X167350000Y-78400000D02*
X167350000Y-77250000D01*
X171050000Y-91075000D02*
X170600000Y-91525000D01*
X169150000Y-77925000D02*
X168800000Y-77575000D01*
X181000000Y-94800000D02*
X181625000Y-94800000D01*
X180000000Y-76975000D02*
X180000000Y-79325000D01*
X182825000Y-94975000D02*
X183000000Y-94800000D01*
X180000000Y-76975000D02*
X178825000Y-76975000D01*
X168125000Y-85850000D02*
X166075000Y-85850000D01*
X178037500Y-94412500D02*
X176987500Y-94412500D01*
X182175000Y-63400000D02*
X182175000Y-64575000D01*
X172000000Y-95244000D02*
X172000000Y-92025000D01*
X192225000Y-112625000D02*
X192200000Y-112600000D01*
X166075000Y-85850000D02*
X166000000Y-85775000D01*
X177550000Y-89275000D02*
X178500000Y-89275000D01*
D51*
X192225000Y-114000000D02*
X192225000Y-112625000D01*
D52*
X180200000Y-66575000D02*
X180200000Y-65400000D01*
X170600000Y-91525000D02*
X170600000Y-91825000D01*
X181625000Y-94800000D02*
X181800000Y-94975000D01*
%TO.N,/MCU/NRST*%
X165533700Y-121483757D02*
X165533700Y-116765300D01*
X166384700Y-122334757D02*
X165533700Y-121483757D01*
X169250000Y-82850000D02*
X168125000Y-82850000D01*
X165533700Y-116765300D02*
X165749000Y-116550000D01*
X166600000Y-107600000D02*
X166600000Y-107200000D01*
X166384700Y-122200000D02*
X166800000Y-122200000D01*
X166800000Y-122200000D02*
X167600000Y-123000000D01*
X165749000Y-116550000D02*
X161600000Y-112401000D01*
X161600000Y-112401000D02*
X161600000Y-111400000D01*
X168614498Y-126406401D02*
X165800000Y-126406401D01*
X166384700Y-122334757D02*
X165412600Y-123306857D01*
X165412600Y-126019001D02*
X165800000Y-126406401D01*
X170000000Y-83600000D02*
X169250000Y-82850000D01*
X164200000Y-108800000D02*
X165400000Y-108800000D01*
X170000000Y-84200000D02*
X170000000Y-83600000D01*
X166384700Y-122200000D02*
X166384700Y-122334757D01*
X165412600Y-123306857D02*
X165412600Y-126019001D01*
X167600000Y-123000000D02*
X170600000Y-123000000D01*
X165800000Y-126406401D02*
X164514502Y-126406401D01*
X161600000Y-111400000D02*
X164200000Y-108800000D01*
X165400000Y-108800000D02*
X166600000Y-107600000D01*
%TO.N,/MCU/BLE_RST*%
X174174000Y-73601000D02*
X169601000Y-73601000D01*
X168800000Y-72800000D02*
X168800000Y-71500000D01*
X177975000Y-68225000D02*
X177975000Y-67825000D01*
X177400000Y-67250000D02*
X177400000Y-65800000D01*
X176400000Y-69800000D02*
X176400000Y-70800000D01*
X174400000Y-72975000D02*
X174400000Y-73375000D01*
X177330000Y-71730000D02*
X177330000Y-73140000D01*
X177975000Y-67825000D02*
X177400000Y-67250000D01*
X169601000Y-73601000D02*
X169500000Y-73500000D01*
X177165000Y-72975000D02*
X177330000Y-73140000D01*
X180200000Y-68225000D02*
X177975000Y-68225000D01*
X174400000Y-73375000D02*
X174174000Y-73601000D01*
X174400000Y-72975000D02*
X177165000Y-72975000D01*
X177975000Y-68225000D02*
X176400000Y-69800000D01*
X169500000Y-73500000D02*
X168800000Y-72800000D01*
X176400000Y-70800000D02*
X177330000Y-71730000D01*
X171550000Y-77925000D02*
X171550000Y-75550000D01*
X171550000Y-75550000D02*
X169500000Y-73500000D01*
%TO.N,Net-(D1-K)*%
X187200000Y-126775000D02*
X187200000Y-126175000D01*
X182400000Y-120000000D02*
X182000000Y-119600000D01*
X182000000Y-117412500D02*
X180487500Y-115900000D01*
X188000000Y-123800000D02*
X187800000Y-124000000D01*
X179375000Y-116800000D02*
X178200000Y-116800000D01*
X189400000Y-123800000D02*
X188000000Y-123800000D01*
X180275000Y-115900000D02*
X179375000Y-116800000D01*
X182000000Y-119600000D02*
X182000000Y-117412500D01*
X180487500Y-115900000D02*
X180275000Y-115900000D01*
X172400000Y-126812500D02*
X172400000Y-125400000D01*
X185400000Y-120000000D02*
X182400000Y-120000000D01*
X178200000Y-116800000D02*
X177600000Y-117400000D01*
X187800000Y-124000000D02*
X187800000Y-122400000D01*
X187800000Y-125575000D02*
X187800000Y-124000000D01*
X187200000Y-126175000D02*
X187800000Y-125575000D01*
X187800000Y-122400000D02*
X185400000Y-120000000D01*
%TO.N,Net-(D1-A)*%
X172437500Y-128425000D02*
X172400000Y-128387500D01*
X174400000Y-128425000D02*
X172437500Y-128425000D01*
%TO.N,Net-(D2-A)*%
X188962500Y-128387500D02*
X188925000Y-128425000D01*
X188925000Y-128425000D02*
X187200000Y-128425000D01*
%TO.N,Net-(D4-A)*%
X164387500Y-101400000D02*
X164387500Y-103162500D01*
X164387500Y-103162500D02*
X164425000Y-103200000D01*
D53*
%TO.N,Net-(J1-CC2)*%
X174625000Y-110200000D02*
X175600000Y-110200000D01*
X181426000Y-122451500D02*
X180927500Y-122451500D01*
X180927500Y-122451500D02*
X180800000Y-122324000D01*
X181500000Y-122525500D02*
X181426000Y-122451500D01*
X180800000Y-122324000D02*
X180800000Y-120400000D01*
X181500000Y-123077500D02*
X181500000Y-122525500D01*
%TO.N,Net-(J1-CC1)*%
X174650000Y-112200000D02*
X175800000Y-112200000D01*
X179750000Y-120450000D02*
X180000000Y-120200000D01*
X179750000Y-121777500D02*
X179750000Y-120450000D01*
D52*
%TO.N,/MCU/SWO*%
X165749000Y-111451000D02*
X166400000Y-110800000D01*
X165749000Y-111470000D02*
X165749000Y-111451000D01*
X174550000Y-82050000D02*
X174200000Y-82400000D01*
X166400000Y-109200000D02*
X167200000Y-108400000D01*
X166400000Y-110800000D02*
X166400000Y-109200000D01*
X174550000Y-77925000D02*
X174550000Y-82050000D01*
%TO.N,/MCU/SWDIO*%
X167019000Y-115280000D02*
X172680000Y-115280000D01*
X177750000Y-80850000D02*
X175800000Y-82800000D01*
X179475000Y-80850000D02*
X177750000Y-80850000D01*
X172680000Y-115280000D02*
X172700000Y-115300000D01*
%TO.N,/MCU/SWCLK*%
X177501000Y-77974000D02*
X177501000Y-79299000D01*
X177501000Y-79299000D02*
X176000000Y-80800000D01*
X176000000Y-81600000D02*
X175000000Y-82600000D01*
X168679000Y-114400000D02*
X169200000Y-114400000D01*
X169200000Y-114400000D02*
X171000000Y-112600000D01*
X177550000Y-77925000D02*
X177501000Y-77974000D01*
X167019000Y-112740000D02*
X168679000Y-114400000D01*
X176000000Y-80800000D02*
X176000000Y-81600000D01*
%TO.N,Net-(U1-PROG)*%
X178000000Y-115900000D02*
X179200000Y-114700000D01*
X180600000Y-112025000D02*
X180800000Y-111825000D01*
X179200000Y-114700000D02*
X179200000Y-113200000D01*
X179200000Y-113200000D02*
X180375000Y-112025000D01*
X180375000Y-112025000D02*
X180600000Y-112025000D01*
%TO.N,Net-(U3-BOOT0)*%
X172050000Y-80150000D02*
X172050000Y-77925000D01*
X194375000Y-102375000D02*
X194375000Y-103600000D01*
X190600000Y-98600000D02*
X194375000Y-102375000D01*
X183800000Y-97200000D02*
X185200000Y-98600000D01*
X185200000Y-98600000D02*
X190600000Y-98600000D01*
X172000000Y-80200000D02*
X172050000Y-80150000D01*
X172000000Y-80400000D02*
X172000000Y-80200000D01*
%TO.N,Net-(D4-K)*%
X173000000Y-70600000D02*
X173000000Y-71600000D01*
X162575000Y-101400000D02*
X161000000Y-99825000D01*
X161000000Y-99825000D02*
X161000000Y-74800000D01*
X171250000Y-69850000D02*
X172250000Y-69850000D01*
X172250000Y-69850000D02*
X173000000Y-70600000D01*
%TO.N,Net-(U6-REG)*%
X166800000Y-93200000D02*
X166975000Y-93025000D01*
X166975000Y-93025000D02*
X168800000Y-93025000D01*
%TO.N,ADC1_IN2*%
X176545255Y-99229745D02*
X176375000Y-99400000D01*
X166025000Y-88600000D02*
X165825000Y-88800000D01*
X167400000Y-99400000D02*
X166600000Y-100200000D01*
X165200000Y-88800000D02*
X164600000Y-88200000D01*
X166600000Y-100200000D02*
X163800000Y-100200000D01*
X177926374Y-99229745D02*
X176545255Y-99229745D01*
X182200000Y-99400000D02*
X182000000Y-99400000D01*
X167125000Y-86850000D02*
X168125000Y-86850000D01*
X181829745Y-99229745D02*
X179926374Y-99229745D01*
X165850000Y-88125000D02*
X167125000Y-86850000D01*
X163600000Y-100000000D02*
X163600000Y-97600000D01*
X165850000Y-88425000D02*
X165850000Y-88125000D01*
X182000000Y-99400000D02*
X181829745Y-99229745D01*
X163800000Y-100200000D02*
X163600000Y-100000000D01*
X165825000Y-88800000D02*
X165200000Y-88800000D01*
X166025000Y-88600000D02*
X165850000Y-88425000D01*
X179926374Y-99229745D02*
X177926374Y-99229745D01*
X176375000Y-99400000D02*
X167400000Y-99400000D01*
%TO.N,TSC_1*%
X174800000Y-74600000D02*
X174050000Y-75350000D01*
X182600000Y-72810000D02*
X182600000Y-73600000D01*
X174050000Y-75350000D02*
X174050000Y-77925000D01*
X182600000Y-73600000D02*
X181600000Y-74600000D01*
X181600000Y-74600000D02*
X174800000Y-74600000D01*
%TO.N,BATT_LOW*%
X180283824Y-81350000D02*
X180600000Y-81033824D01*
X181200000Y-77400000D02*
X181200000Y-75400000D01*
X180600000Y-81033824D02*
X180600000Y-78000000D01*
X179475000Y-81350000D02*
X180283824Y-81350000D01*
X182212500Y-61600000D02*
X181200000Y-62612500D01*
X180600000Y-78000000D02*
X181200000Y-77400000D01*
X181200000Y-62612500D02*
X181200000Y-69600000D01*
%TO.N,Net-(D5-A)*%
X183787500Y-63362500D02*
X183825000Y-63400000D01*
X183787500Y-61600000D02*
X183787500Y-63362500D01*
%TO.N,/MCU/BLE_MODE*%
X173250000Y-65050000D02*
X173800000Y-65600000D01*
X171250000Y-65050000D02*
X173250000Y-65050000D01*
X176550000Y-75250000D02*
X176550000Y-77925000D01*
X176600000Y-75200000D02*
X176550000Y-75250000D01*
%TO.N,BUT_PRESS*%
X182224265Y-77175735D02*
X181200000Y-78200000D01*
X181800000Y-66600000D02*
X181800000Y-68800000D01*
X185000000Y-63000000D02*
X185000000Y-64800000D01*
X181200000Y-78200000D02*
X181200000Y-80933824D01*
X184200000Y-65600000D02*
X182800000Y-65600000D01*
X186400000Y-61600000D02*
X185000000Y-63000000D01*
X180283824Y-81850000D02*
X179475000Y-81850000D01*
X182800000Y-65600000D02*
X181800000Y-66600000D01*
X182224265Y-74824265D02*
X182224265Y-77175735D01*
X181200000Y-80933824D02*
X180283824Y-81850000D01*
X185000000Y-64800000D02*
X184200000Y-65600000D01*
%TO.N,TSC_4*%
X175550000Y-90181824D02*
X175550000Y-89275000D01*
X182600000Y-91650000D02*
X177018176Y-91650000D01*
X177018176Y-91650000D02*
X175550000Y-90181824D01*
%TO.N,Net-(D6-A)*%
X187975000Y-61600000D02*
X187975000Y-63362500D01*
X187975000Y-63362500D02*
X188012500Y-63400000D01*
%TO.N,Net-(U3-PB6)*%
X173050000Y-77925000D02*
X173050000Y-76025000D01*
X173050000Y-76025000D02*
X173000000Y-75975000D01*
%TO.N,/MCU/BLE_UART_RX_IND*%
X167316176Y-81350000D02*
X164400000Y-78433824D01*
X164000000Y-73200000D02*
X164400000Y-73600000D01*
X168125000Y-81350000D02*
X167316176Y-81350000D01*
X164400000Y-78433824D02*
X164400000Y-77600000D01*
X164000000Y-71500000D02*
X164000000Y-73200000D01*
%TO.N,TSC_2*%
X182200000Y-80450000D02*
X182200000Y-80800000D01*
X180650000Y-82350000D02*
X179475000Y-82350000D01*
X182200000Y-80800000D02*
X180650000Y-82350000D01*
%TO.N,I2C2_SCL*%
X166600000Y-94550057D02*
X166600000Y-95400000D01*
X163425000Y-96200000D02*
X162400000Y-95175000D01*
X166300000Y-93200000D02*
X166300000Y-94250057D01*
X166300000Y-91700000D02*
X165600000Y-91000000D01*
X178550000Y-92550000D02*
X178400000Y-92400000D01*
X165600000Y-91000000D02*
X162728000Y-88128000D01*
X165600000Y-91000000D02*
X166200000Y-91000000D01*
X168125000Y-82350000D02*
X168175000Y-82400000D01*
X168125000Y-82350000D02*
X169686138Y-82350000D01*
X169686138Y-82350000D02*
X174936138Y-87600000D01*
X166300000Y-94250057D02*
X166600000Y-94550057D01*
X178550000Y-93400000D02*
X178550000Y-92550000D01*
X166200000Y-91000000D02*
X166800000Y-90400000D01*
X174936138Y-87600000D02*
X177200000Y-87600000D01*
X166300000Y-93200000D02*
X166300000Y-91700000D01*
X162728000Y-88128000D02*
X162728000Y-83135862D01*
X163513862Y-82350000D02*
X168125000Y-82350000D01*
X166600000Y-95400000D02*
X165800000Y-96200000D01*
X162728000Y-83135862D02*
X163513862Y-82350000D01*
X165800000Y-96200000D02*
X163425000Y-96200000D01*
%TO.N,I2C2_SDA*%
X170313862Y-81850000D02*
X174200000Y-85736138D01*
D53*
X178037500Y-93912500D02*
X176512500Y-93912500D01*
D52*
X165800000Y-93200000D02*
X165800000Y-92000000D01*
X163550000Y-81850000D02*
X168125000Y-81850000D01*
X162400000Y-88600000D02*
X162400000Y-83000000D01*
X162375000Y-90000000D02*
X161800000Y-90575000D01*
X164100000Y-90300000D02*
X163000000Y-89200000D01*
X162400000Y-90000000D02*
X162375000Y-90000000D01*
X163000000Y-89400000D02*
X162400000Y-90000000D01*
X168125000Y-81850000D02*
X170313862Y-81850000D01*
X163000000Y-89200000D02*
X162400000Y-88600000D01*
X163600000Y-91600000D02*
X163600000Y-90800000D01*
X174000000Y-91600000D02*
X174200000Y-91600000D01*
X163000000Y-89200000D02*
X163000000Y-89400000D01*
X165800000Y-92000000D02*
X164100000Y-90300000D01*
X162400000Y-83000000D02*
X163550000Y-81850000D01*
X163600000Y-90800000D02*
X164100000Y-90300000D01*
X176512500Y-93912500D02*
X174200000Y-91600000D01*
%TO.N,TSC_5*%
X176800000Y-97400000D02*
X176800000Y-96578341D01*
X176800000Y-96578341D02*
X173976000Y-93754341D01*
X173976000Y-92197659D02*
X173050000Y-91271659D01*
X173976000Y-93754341D02*
X173976000Y-92197659D01*
X173050000Y-91271659D02*
X173050000Y-89275000D01*
%TO.N,TSC_3*%
X181400000Y-85200000D02*
X181400000Y-85675000D01*
X181400000Y-85675000D02*
X180725000Y-86350000D01*
X180725000Y-86350000D02*
X179475000Y-86350000D01*
%TO.N,GND*%
X174800000Y-71025000D02*
X174800000Y-70600000D01*
X179562500Y-93912500D02*
X180312500Y-93912500D01*
X170025000Y-76025000D02*
X168800000Y-76025000D01*
X167575000Y-88600000D02*
X167575000Y-88775000D01*
X165800000Y-98800000D02*
X165800000Y-97600000D01*
X172975000Y-109175000D02*
X172800000Y-109000000D01*
X170550000Y-76550000D02*
X170025000Y-76025000D01*
X167799000Y-75799000D02*
X167600000Y-75600000D01*
X180600000Y-91000000D02*
X180575000Y-90975000D01*
X161400000Y-67200000D02*
X162350000Y-66250000D01*
X172400000Y-95200000D02*
X173200000Y-94400000D01*
D51*
X170375000Y-97200000D02*
X170375000Y-96225000D01*
D52*
X174400000Y-71425000D02*
X174800000Y-71025000D01*
X165000000Y-99600000D02*
X165800000Y-98800000D01*
X184660000Y-121777500D02*
X185070000Y-122187500D01*
X171250000Y-68650000D02*
X172650000Y-68650000D01*
X169364450Y-105800000D02*
X169310250Y-105854200D01*
D51*
X174425000Y-113825000D02*
X174400000Y-113800000D01*
X180275000Y-114950000D02*
X181575000Y-114950000D01*
D52*
X164514502Y-124806399D02*
X163406399Y-124806399D01*
X180000000Y-75425000D02*
X178825000Y-75425000D01*
X173000000Y-112200000D02*
X173000000Y-113400000D01*
X170600000Y-93375000D02*
X171400000Y-94175000D01*
X181800000Y-93425000D02*
X182775000Y-93425000D01*
X177050000Y-90450000D02*
X177050000Y-89275000D01*
X170550000Y-77925000D02*
X170550000Y-76550000D01*
X168800000Y-76025000D02*
X168074943Y-76025000D01*
X183850000Y-123077500D02*
X184180000Y-123077500D01*
X173200000Y-97375000D02*
X174175000Y-97375000D01*
X182950000Y-87400000D02*
X182950000Y-88450000D01*
X169310250Y-105854200D02*
X169018650Y-105854200D01*
X167125000Y-85350000D02*
X166000000Y-84225000D01*
X190981350Y-105854200D02*
X192545800Y-105854200D01*
X171800000Y-74400000D02*
X171825000Y-74425000D01*
X183750000Y-121777500D02*
X183750000Y-122977500D01*
X182800000Y-93400000D02*
X182775000Y-93425000D01*
X177600000Y-91000000D02*
X177050000Y-90450000D01*
X178000000Y-100953371D02*
X178000000Y-102400000D01*
X166000000Y-84225000D02*
X166000000Y-83200000D01*
X179475000Y-80350000D02*
X177950000Y-80350000D01*
D51*
X170375000Y-96225000D02*
X170600000Y-96000000D01*
D52*
X197054200Y-68781350D02*
X197054200Y-70345800D01*
X166564500Y-123435500D02*
X166600000Y-123400000D01*
D51*
X174425000Y-114800000D02*
X174425000Y-113825000D01*
D52*
X168125000Y-85350000D02*
X167125000Y-85350000D01*
D51*
X192200000Y-115575000D02*
X193375000Y-115575000D01*
D52*
X168800000Y-94575000D02*
X168800000Y-95600000D01*
X167019000Y-111470000D02*
X167377646Y-111470000D01*
X177950000Y-80350000D02*
X177800000Y-80200000D01*
D51*
X187125000Y-114950000D02*
X185850000Y-114950000D01*
D52*
X184618650Y-105854200D02*
X190981350Y-105854200D01*
X163406399Y-124806399D02*
X163400000Y-124800000D01*
X184180000Y-123077500D02*
X185070000Y-122187500D01*
X161400000Y-73200000D02*
X161400000Y-67200000D01*
X197054200Y-62418650D02*
X197054200Y-68781350D01*
X173000000Y-74425000D02*
X171825000Y-74425000D01*
X182000000Y-110200000D02*
X181800000Y-110200000D01*
X164869000Y-114400000D02*
X164600000Y-114400000D01*
X168614498Y-124806399D02*
X168614498Y-124806398D01*
X177320000Y-123077500D02*
X176430000Y-122187500D01*
X183750000Y-122977500D02*
X183850000Y-123077500D01*
X197054200Y-70345800D02*
X197000000Y-70400000D01*
X172975000Y-110200000D02*
X172975000Y-109175000D01*
X176840000Y-121777500D02*
X176430000Y-122187500D01*
X182950000Y-88450000D02*
X182800000Y-88600000D01*
X167410000Y-114010000D02*
X167019000Y-114010000D01*
D51*
X182375000Y-115575000D02*
X183400000Y-116600000D01*
D52*
X165749000Y-115280000D02*
X164869000Y-114400000D01*
X181800000Y-110200000D02*
X181775000Y-110175000D01*
X167575000Y-88775000D02*
X168400000Y-89600000D01*
X189200000Y-126800000D02*
X189200000Y-125600000D01*
X162350000Y-66250000D02*
X162750000Y-66250000D01*
X177000000Y-106400000D02*
X175927150Y-106400000D01*
X177750000Y-121777500D02*
X177750000Y-122977500D01*
X171400000Y-94175000D02*
X171400000Y-94200000D01*
D51*
X193375000Y-115575000D02*
X193400000Y-115600000D01*
D52*
X166000000Y-84225000D02*
X164000000Y-84225000D01*
X181775000Y-110175000D02*
X180800000Y-110175000D01*
X174975000Y-67400000D02*
X176200000Y-67400000D01*
X172400000Y-95421659D02*
X172400000Y-95200000D01*
X167377646Y-111470000D02*
X169200000Y-109647646D01*
X175454200Y-105927050D02*
X175454200Y-105781350D01*
D51*
X188575000Y-112400000D02*
X189800000Y-112400000D01*
D52*
X172650000Y-68650000D02*
X172800000Y-68800000D01*
X164000000Y-84225000D02*
X164000000Y-83200000D01*
X177650000Y-123077500D02*
X177320000Y-123077500D01*
X168000000Y-114600000D02*
X167410000Y-114010000D01*
X182975000Y-83400000D02*
X182975000Y-82225000D01*
X165800000Y-78400000D02*
X165800000Y-77200000D01*
X192545800Y-105854200D02*
X192600000Y-105800000D01*
X168074943Y-76025000D02*
X167848943Y-75799000D01*
X171640659Y-96181000D02*
X172400000Y-95421659D01*
X172150000Y-123450000D02*
X171400000Y-124200000D01*
X185850000Y-114950000D02*
X185800000Y-115000000D01*
X178037500Y-93412500D02*
X177812500Y-93412500D01*
X166564500Y-124181460D02*
X166564500Y-123435500D01*
X183750000Y-121777500D02*
X184660000Y-121777500D01*
X196025000Y-103600000D02*
X197200000Y-103600000D01*
X175927150Y-106400000D02*
X175454200Y-105927050D01*
X167575000Y-88600000D02*
X167400000Y-88775000D01*
X182975000Y-82225000D02*
X183000000Y-82200000D01*
X170600000Y-96000000D02*
X170781000Y-96181000D01*
X177750000Y-121777500D02*
X176840000Y-121777500D01*
X168614498Y-124806398D02*
X168620897Y-124800000D01*
X175454200Y-105781350D02*
X175435550Y-105800000D01*
X180312500Y-93912500D02*
X180400000Y-94000000D01*
X184200000Y-118400000D02*
X186200000Y-118400000D01*
D51*
X181575000Y-114950000D02*
X182200000Y-115575000D01*
D52*
X174175000Y-97375000D02*
X174200000Y-97400000D01*
X177926374Y-100879745D02*
X178000000Y-100953371D01*
X177812500Y-93412500D02*
X177200000Y-92800000D01*
X170781000Y-96181000D02*
X171640659Y-96181000D01*
D51*
X182200000Y-115575000D02*
X182375000Y-115575000D01*
D52*
X175435550Y-105800000D02*
X169364450Y-105800000D01*
X178825000Y-75425000D02*
X178800000Y-75400000D01*
X180575000Y-89800000D02*
X180575000Y-90975000D01*
X177750000Y-122977500D02*
X177650000Y-123077500D01*
X173000000Y-113400000D02*
X172800000Y-113600000D01*
X169200000Y-109600000D02*
X169200000Y-109647646D01*
X168620897Y-124800000D02*
X170200000Y-124800000D01*
D51*
X192200000Y-115575000D02*
X192200000Y-117000000D01*
D52*
X172150000Y-123000000D02*
X172150000Y-123450000D01*
X167848943Y-75799000D02*
X167799000Y-75799000D01*
%TO.N,AUTO_DIM*%
X175000000Y-100000000D02*
X175000000Y-100437300D01*
X175000000Y-100437300D02*
X175381350Y-100818650D01*
X176600000Y-86600000D02*
X178301000Y-84899000D01*
X175381350Y-102200000D02*
X169072850Y-102200000D01*
X179426000Y-84899000D02*
X179475000Y-84850000D01*
X169072850Y-102200000D02*
X169018650Y-102145800D01*
X175381350Y-100818650D02*
X175381350Y-102200000D01*
X176600000Y-86800000D02*
X176600000Y-86600000D01*
X178301000Y-84899000D02*
X179426000Y-84899000D01*
%TO.N,/MCU/UART5_RX*%
X175050000Y-76450000D02*
X174600000Y-76000000D01*
X164200000Y-77000000D02*
X162800000Y-77000000D01*
X175050000Y-77925000D02*
X175050000Y-76450000D01*
X174600000Y-76000000D02*
X174650000Y-76000000D01*
X166400000Y-73400000D02*
X166400000Y-71500000D01*
X166400000Y-73400000D02*
X166400000Y-74800000D01*
X166400000Y-74800000D02*
X164200000Y-77000000D01*
%TO.N,POWER*%
X177000000Y-84600000D02*
X178136138Y-84600000D01*
X176800000Y-83600000D02*
X176800000Y-84400000D01*
X176800000Y-84400000D02*
X177000000Y-84600000D01*
X193345800Y-68781350D02*
X193345800Y-70854200D01*
X193345800Y-70854200D02*
X193200000Y-71000000D01*
X193345800Y-62418650D02*
X193345800Y-68781350D01*
X177800000Y-82600000D02*
X176800000Y-83600000D01*
X178386138Y-84350000D02*
X179475000Y-84350000D01*
X178136138Y-84600000D02*
X178386138Y-84350000D01*
%TO.N,/MCU/UART5_TX*%
X165200000Y-73800000D02*
X165200000Y-71500000D01*
X175400000Y-79400000D02*
X175550000Y-79250000D01*
X165800000Y-74400000D02*
X165200000Y-73800000D01*
X165800000Y-74475735D02*
X165800000Y-74400000D01*
X175550000Y-79250000D02*
X175550000Y-77925000D01*
%TO.N,Net-(U3-PA9)*%
X180875000Y-82850000D02*
X181425000Y-83400000D01*
X179475000Y-82850000D02*
X180875000Y-82850000D01*
%TO.N,MODE*%
X184618650Y-102145800D02*
X184618650Y-100018650D01*
X184618650Y-100018650D02*
X184553480Y-99953480D01*
X177950000Y-83850000D02*
X179475000Y-83850000D01*
X177800000Y-84000000D02*
X177950000Y-83850000D01*
X190981350Y-102145800D02*
X184618650Y-102145800D01*
%TO.N,Net-(U6-OUT+)*%
X165300000Y-98358824D02*
X164658824Y-99000000D01*
X164658824Y-99000000D02*
X164400000Y-99000000D01*
X165300000Y-97600000D02*
X165300000Y-98358824D01*
%TO.N,Net-(U3-PB13)*%
X179475000Y-86850000D02*
X180850000Y-86850000D01*
X180850000Y-86850000D02*
X181400000Y-87400000D01*
%TO.N,Net-(U6-OUT-)*%
X166151473Y-99448527D02*
X166000000Y-99448527D01*
X166300000Y-99300000D02*
X166151473Y-99448527D01*
X166300000Y-97600000D02*
X166300000Y-99300000D01*
%TO.N,LRA_TRIG*%
X167800000Y-91600000D02*
X167694034Y-91600000D01*
X167694034Y-91600000D02*
X167641051Y-91547017D01*
X165300000Y-94100000D02*
X165775735Y-94575735D01*
X170050000Y-89275000D02*
X167800000Y-91525000D01*
X165300000Y-93200000D02*
X165300000Y-94100000D01*
X167800000Y-91525000D02*
X167800000Y-91600000D01*
%TO.N,LRA_EN*%
X169000000Y-91200000D02*
X168400000Y-91800000D01*
X170550000Y-90083824D02*
X169433824Y-91200000D01*
X170550000Y-89275000D02*
X170550000Y-90083824D01*
X164800000Y-94800000D02*
X164800000Y-93200000D01*
X165386000Y-95386000D02*
X164800000Y-94800000D01*
X165765470Y-95386000D02*
X165386000Y-95386000D01*
X169433824Y-91200000D02*
X169000000Y-91200000D01*
%TO.N,/MCU/BLE_STATUS1*%
X176050000Y-77925000D02*
X176050000Y-76250000D01*
X175975735Y-76224265D02*
X175950000Y-76224265D01*
X176050000Y-76250000D02*
X176000000Y-76200000D01*
X172762867Y-73001000D02*
X170201000Y-73001000D01*
X170201000Y-73001000D02*
X170000000Y-72800000D01*
X176000000Y-76200000D02*
X175975735Y-76224265D01*
X170000000Y-72800000D02*
X170000000Y-71500000D01*
%TO.N,Net-(U3-PB1)*%
X175050000Y-89275000D02*
X175050000Y-90428341D01*
X176400000Y-91778341D02*
X176400000Y-92200000D01*
X173200000Y-95825000D02*
X175225000Y-95825000D01*
X175050000Y-90428341D02*
X176400000Y-91778341D01*
X175225000Y-95825000D02*
X175600000Y-96200000D01*
%TO.N,/MCU/BLE_STATUS2*%
X167600000Y-73136138D02*
X171050000Y-76586138D01*
X167600000Y-71500000D02*
X167600000Y-73136138D01*
X171050000Y-76586138D02*
X171050000Y-77925000D01*
%TO.N,Net-(U3-PA6)*%
X173200000Y-92850000D02*
X172550000Y-92200000D01*
X172550000Y-92200000D02*
X172550000Y-89275000D01*
%TO.N,/MCU/ACC_INT*%
X174550000Y-89275000D02*
X174550000Y-90750000D01*
X174550000Y-90750000D02*
X175600000Y-91800000D01*
X178550000Y-94925000D02*
X178550000Y-95364500D01*
X176600000Y-95800000D02*
X175600000Y-94800000D01*
X175600000Y-94800000D02*
X175600000Y-94400000D01*
X178550000Y-95364500D02*
X178114500Y-95800000D01*
X178114500Y-95800000D02*
X176600000Y-95800000D01*
%TO.N,Net-(TS1-TSC1)*%
X182600000Y-69600000D02*
X182600000Y-71160000D01*
X185516667Y-68800000D02*
X183400000Y-68800000D01*
X185600000Y-68716667D02*
X185516667Y-68800000D01*
X183400000Y-68800000D02*
X182600000Y-69600000D01*
%TO.N,Net-(TS1-TSC2)*%
X183225000Y-78800000D02*
X182200000Y-78800000D01*
X185600000Y-75600000D02*
X184683333Y-75600000D01*
X185100000Y-76925000D02*
X183225000Y-78800000D01*
%TO.N,Net-(TS1-TSC3)*%
X183050000Y-84975000D02*
X185100000Y-82925000D01*
X183050000Y-85200000D02*
X183050000Y-84975000D01*
%TO.N,Net-(TS1-TSC4)*%
X185600000Y-87600000D02*
X185191667Y-88008333D01*
X185191667Y-88008333D02*
X184600000Y-88008333D01*
X185600000Y-87600000D02*
X183200000Y-90000000D01*
X183200000Y-90000000D02*
X182600000Y-90000000D01*
%TO.N,Net-(TS1-TSC5)*%
X182000000Y-97166666D02*
X182000000Y-97200000D01*
X185600000Y-94483333D02*
X184683333Y-94483333D01*
X184683333Y-94483333D02*
X182283333Y-96883333D01*
X181766666Y-97400000D02*
X182283333Y-96883333D01*
X178450000Y-97400000D02*
X181766666Y-97400000D01*
X182283333Y-96883333D02*
X182000000Y-97166666D01*
%TD*%
M02*
